<svg width="41" height="59" viewBox="0 0 41 59" fill="none" xmlns="http://www.w3.org/2000/svg">
<g filter="url(#filter0_d_6_411)">
<path d="M29.9396 2.98814C29.5928 3.0968 29.246 3.21904 28.9131 3.35486C28.8298 3.38203 28.7466 3.42278 28.6634 3.44994C28.6634 3.54502 28.6634 3.62651 28.6495 3.70801C28.6079 4.83535 28.4831 5.94911 28.275 7.04929C27.734 6.24793 27.1653 5.46014 26.5549 4.71311C26.4994 4.6452 26.4578 4.59087 26.4023 4.52295C26.333 4.5637 26.2498 4.60445 26.1804 4.6452C25.681 4.93043 25.1955 5.22924 24.7239 5.55522C24.6268 5.62313 24.5297 5.67746 24.4465 5.74538C24.4465 5.74538 24.4326 5.74538 24.4326 5.75896C24.3632 5.81329 24.28 5.86762 24.2106 5.92195C23.8361 6.1936 23.4616 6.47883 23.1148 6.77764C23.0454 6.83197 22.99 6.8863 22.9206 6.94063C22.2964 7.47035 21.7138 8.02723 21.1728 8.62485C20.8954 7.93215 20.6734 7.21228 20.4931 6.47883C20.4515 6.28867 20.4099 6.08494 20.3682 5.8812C20.3682 5.89478 20.3682 5.89478 20.3682 5.90836C20.3544 6.00344 20.3266 6.09852 20.3128 6.18001C20.285 6.27509 20.2711 6.38375 20.2434 6.47883C20.0631 7.23944 19.8273 7.98648 19.536 8.71993C18.9672 8.09514 18.3569 7.49751 17.7049 6.95421C17.6494 6.89988 17.5801 6.84555 17.5107 6.79122C17.1778 6.51957 16.8449 6.26151 16.4981 6.00344C16.4287 5.94911 16.3733 5.90836 16.3039 5.86762C16.3039 5.85403 16.29 5.82687 16.29 5.81329C16.29 5.82687 16.2762 5.84045 16.2762 5.85403C16.1929 5.78612 16.1097 5.73179 16.0126 5.66388C15.4994 5.31074 14.9722 4.97118 14.4312 4.67236C14.3619 4.63161 14.2925 4.59087 14.2093 4.55012C14.1538 4.61803 14.0983 4.67236 14.0567 4.74027C13.4741 5.44656 12.9331 6.18001 12.4199 6.95421C12.2396 5.92195 12.1147 4.86252 12.0731 3.80309C12.0731 3.70801 12.0592 3.62651 12.0592 3.53144C11.976 3.49069 11.8928 3.46352 11.8095 3.42278C11.435 3.27337 11.0466 3.13755 10.6582 3.0153C11.0327 2.53992 11.4211 2.06453 11.8234 1.60273C11.9066 1.50765 12.0037 1.39899 12.087 1.30391C12.4892 0.855694 12.8915 0.434638 13.3077 0.0271649C14.1816 0.380309 15.0416 0.774199 15.8739 1.22242C15.9571 1.26317 16.0403 1.30391 16.1097 1.35824C16.2762 1.45332 16.4565 1.5484 16.6229 1.64348C16.6923 1.68422 16.7617 1.72497 16.831 1.76572C16.8449 1.7793 16.8726 1.7793 16.8865 1.79288C16.942 1.82005 16.9975 1.8608 17.053 1.88796C18.024 2.48559 18.9672 3.15113 19.855 3.89816C19.9382 3.96607 20.0353 4.04757 20.1186 4.11548C20.174 4.16981 20.2434 4.22414 20.3128 4.27847C20.3682 4.22414 20.4376 4.16981 20.507 4.11548C20.5486 4.07473 20.5902 4.04757 20.6318 4.00682C20.715 3.92533 20.8121 3.85742 20.8954 3.7895C21.7415 3.0968 22.6432 2.45842 23.5726 1.88796C23.6419 1.84721 23.7113 1.80647 23.7945 1.75214C23.8084 1.76572 23.8361 1.79288 23.85 1.80647C23.85 1.7793 23.85 1.73855 23.8639 1.71139C23.9471 1.65706 24.0442 1.60273 24.1274 1.56198C24.2939 1.4669 24.4603 1.37183 24.6268 1.27675C24.71 1.236 24.7794 1.19526 24.8626 1.14093C25.6671 0.71987 26.4856 0.339561 27.3179 0C27.7756 0.448221 28.2056 0.910024 28.6356 1.38541C28.7189 1.48049 28.816 1.58915 28.8992 1.68422C29.2599 2.13244 29.6067 2.5535 29.9396 2.98814Z" fill="black"/>
<path d="M36.6118 22.3432C36.6118 22.547 36.6118 22.7371 36.6118 22.9409C36.6118 23.0224 36.6118 23.1039 36.6118 23.1854C36.5841 24.4214 36.4731 25.6438 36.2928 26.8526C36.2928 26.9341 36.2789 27.0156 36.265 27.0971C36.0708 28.3331 35.8212 29.5555 35.4882 30.7508C34.1982 30.6964 32.9359 30.5606 31.6875 30.3569C31.6042 30.3433 31.5349 30.3297 31.4516 30.3161C30.2171 30.0988 28.9964 29.7864 27.8034 29.4197C27.7202 29.3925 27.6508 29.3654 27.5676 29.3382C27.5399 29.4197 27.526 29.4876 27.4983 29.5691C27.4012 29.8951 27.2902 30.2075 27.1792 30.5199C27.1376 30.615 27.1099 30.6964 27.0821 30.7915C26.7908 31.5386 26.4718 32.272 26.1111 32.9919C26.0695 33.0598 26.0418 33.1413 26.0001 33.2092C25.8059 33.5895 25.5979 33.9562 25.3898 34.323C25.3482 34.3909 25.3066 34.4724 25.265 34.5403C25.3204 34.5946 25.3898 34.6489 25.4592 34.7033C26.4024 35.5182 27.4289 36.2381 28.5386 36.8357C28.608 36.8765 28.6773 36.9172 28.7467 36.9444C29.8564 37.5284 31.0494 37.9766 32.2839 38.3026C31.632 39.4028 30.9106 40.4758 30.12 41.5081C28.8854 41.1006 27.7063 40.598 26.5827 39.9733C26.5134 39.9325 26.4302 39.8918 26.3608 39.851C25.2788 39.2398 24.2523 38.5335 23.2952 37.7322C23.2397 37.6778 23.1704 37.6235 23.101 37.5692C22.7403 37.2703 22.3936 36.9444 22.0606 36.6184C21.5058 36.0751 20.9787 35.4911 20.4932 34.8934C21.2561 33.9291 21.9358 32.8968 22.5184 31.8102C22.56 31.7423 22.5878 31.6744 22.6294 31.5929C22.6432 31.6065 22.671 31.6065 22.6849 31.6201C22.671 31.6065 22.6571 31.5793 22.6432 31.5657C22.6849 31.4842 22.7265 31.4027 22.7681 31.3077C23.2397 30.3705 23.6281 29.3925 23.9472 28.3874C23.9749 28.3059 23.9888 28.238 24.0165 28.1701C24.0304 28.1158 24.0581 28.0615 24.0581 28.0071C24.072 27.9935 24.0998 27.98 24.1136 27.9664C24.0998 27.9664 24.0859 27.9528 24.072 27.9528C24.2107 27.4638 24.3356 26.9613 24.4465 26.4587C24.4882 26.2957 24.5159 26.1192 24.5436 25.9562C24.6546 25.3721 24.7378 24.7881 24.7795 24.1769C25.5563 24.5979 26.3608 24.9647 27.1792 25.3042C27.2624 25.345 27.3457 25.3721 27.4289 25.3993C27.7341 25.5215 28.0531 25.6302 28.3583 25.7389C28.4415 25.766 28.5248 25.7932 28.5941 25.8203C29.7732 26.2142 30.9939 26.5266 32.2423 26.744C32.3255 26.7575 32.4088 26.7711 32.492 26.7847C32.5059 26.7032 32.5197 26.6217 32.5336 26.5402C32.7139 25.3314 32.8249 24.109 32.8388 22.8594C32.8388 22.7779 32.8388 22.6964 32.8388 22.6149C32.8388 22.5334 32.8388 22.4519 32.8388 22.3568C32.8388 21.1616 32.7556 19.9663 32.6168 18.8118C32.6168 18.7711 32.6168 18.7439 32.603 18.7031C32.6307 18.6624 32.6585 18.6217 32.6723 18.5809C32.6446 18.5809 32.603 18.5673 32.5752 18.5537C32.5614 18.4722 32.5614 18.3907 32.5475 18.3228C32.3533 16.9782 32.062 15.6743 31.6736 14.4111C31.6458 14.3024 31.6042 14.2074 31.5765 14.0987C31.4239 13.6097 31.2574 13.1343 31.0771 12.659C31.0355 12.5503 30.9939 12.4281 30.9384 12.3194C30.8274 12.0477 30.7303 11.7761 30.6055 11.5045C30.5777 11.423 30.5361 11.355 30.5084 11.2735C30.439 11.3143 30.3697 11.3415 30.3003 11.3822C29.7454 11.681 29.2183 12.0206 28.7328 12.4009C28.6635 12.4552 28.5941 12.5096 28.5248 12.5639C28.067 12.9306 27.6231 13.3245 27.2208 13.7456C27.1653 13.8135 27.096 13.8678 27.0266 13.9357C26.6382 14.3568 26.2914 14.7914 25.9724 15.2532C25.8476 15.1445 25.7088 15.0359 25.584 14.9272C25.5285 14.8729 25.4592 14.8186 25.3898 14.7642C25.2233 14.6148 25.0569 14.4518 24.8904 14.3024C24.3356 13.7591 23.8084 13.1751 23.3507 12.5639C23.8084 11.9798 24.3078 11.423 24.8349 10.8932C25.0014 10.7303 25.1679 10.5808 25.3343 10.4179C25.3898 10.3635 25.4592 10.3092 25.5285 10.2549C25.6811 10.119 25.8337 9.9968 25.9863 9.87456C26.0556 9.82023 26.1111 9.7659 26.1805 9.71157C26.7353 9.26335 27.3318 8.85587 27.9422 8.48915C28.0393 8.43482 28.1364 8.36691 28.2473 8.31258C28.3583 8.24466 28.4831 8.17675 28.608 8.12242C28.6773 8.08167 28.7467 8.04093 28.8161 8.01376C29.9258 7.42972 31.1187 6.96791 32.3533 6.65552V6.6691C32.4226 6.79134 32.492 6.9 32.5475 7.02224C33.1023 8.00018 33.6017 9.00528 34.0456 10.0375C34.0872 10.119 34.115 10.187 34.1427 10.2684C34.4756 11.0562 34.7669 11.8712 35.0305 12.6861C35.0721 12.8084 35.1137 12.9442 35.1553 13.0664C35.3634 13.7456 35.5576 14.4247 35.7102 15.1174C35.7379 15.1989 35.7518 15.2804 35.7657 15.3619C36.0431 16.5707 36.2512 17.8067 36.376 19.0563C36.3899 19.1378 36.3899 19.2193 36.4038 19.3008C36.5702 20.2787 36.6118 21.311 36.6118 22.3432Z" fill="black"/>
<path d="M27.1376 44.8492C27.1098 44.8764 27.096 44.89 27.0682 44.9171C26.1111 45.8543 25.1123 46.7236 24.072 47.525C24.0026 47.5793 23.9333 47.6336 23.85 47.6879C22.7126 48.5436 21.5335 49.3178 20.3128 50.0105C19.0921 49.3178 17.913 48.5436 16.7756 47.6879C16.7062 47.6336 16.6369 47.5793 16.5536 47.525C15.5133 46.7236 14.5007 45.8543 13.5574 44.9171C13.5297 44.89 13.5158 44.8764 13.488 44.8492C14.7226 44.3602 15.9017 43.7626 17.0253 43.0835C17.9824 43.9664 19.0228 44.7677 20.0909 45.5148C20.1602 45.5691 20.2296 45.6098 20.3128 45.6642C20.3822 45.6098 20.4515 45.5691 20.5348 45.5148C21.6167 44.7677 22.6432 43.9664 23.6004 43.0835C24.7239 43.7626 25.903 44.3602 27.1376 44.8492Z" fill="black"/>
<path d="M22.0605 12.6045C21.5611 13.4738 21.0063 14.3159 20.3682 15.1037C19.7162 14.2751 19.1336 13.4194 18.6204 12.5094C19.1197 11.6401 19.6746 10.798 20.3127 10.0103C20.9646 10.8252 21.5472 11.6945 22.0605 12.6045Z" fill="black"/>
<path d="M20.9647 16.2038C20.7011 16.8286 20.4931 17.467 20.3127 18.1326C20.1463 17.5078 19.9382 16.883 19.7024 16.2853C19.9382 16.0273 20.1602 15.7692 20.3821 15.4976C20.5624 15.742 20.7566 15.9729 20.9647 16.2038Z" fill="black"/>
<path d="M20.6179 22.343C20.6179 23.416 20.5069 24.4483 20.3127 25.467C20.1047 24.4483 20.0076 23.416 20.0076 22.343C20.0076 22.0306 20.0214 21.7182 20.0353 21.4194C20.0353 21.2972 20.0492 21.1885 20.0631 21.0663C20.1047 21.0391 20.1463 20.9984 20.1879 20.9576C20.1463 20.9304 20.1185 20.9033 20.0769 20.8625C20.0908 20.7539 20.0908 20.6588 20.1047 20.5501C20.1463 20.0883 20.2156 19.6401 20.3127 19.1919C20.4098 19.6673 20.4792 20.1427 20.5347 20.6316C20.5486 20.7267 20.5624 20.8354 20.5624 20.9304C20.5763 21.0391 20.5763 21.1613 20.5902 21.27C20.604 21.6639 20.6179 22.0035 20.6179 22.343Z" fill="black"/>
<path d="M21.5474 29.732C21.159 29.9765 20.7706 30.2074 20.3822 30.4247C19.9522 30.1938 19.5361 29.9357 19.1338 29.6777C19.6332 28.6862 20.0354 27.6539 20.3267 26.5537C20.6042 27.6675 21.0203 28.7269 21.5474 29.732Z" fill="black"/>
<path d="M20.1603 34.8798C19.6748 35.4774 19.1477 36.0614 18.5789 36.6047C18.246 36.9307 17.8992 37.2567 17.5386 37.5555C17.4831 37.6098 17.4137 37.6642 17.3444 37.7185C16.3872 38.5199 15.3607 39.2261 14.2788 39.8374C14.2094 39.8781 14.1401 39.9188 14.0568 39.9596C12.9332 40.5844 11.7542 41.0869 10.5196 41.4944C9.72892 40.4621 9.00761 39.4027 8.35565 38.289C8.31403 38.221 8.25855 38.1395 8.2308 38.0716C7.62046 37.0258 7.07947 35.9392 6.59397 34.839C6.56622 34.7847 6.55235 34.7439 6.52461 34.6896C6.62171 34.6624 6.73268 34.6489 6.82978 34.6217C6.92688 34.5945 7.02398 34.5674 7.12108 34.5402H7.13496H7.14883H7.1627C7.17657 34.5402 7.19044 34.5402 7.21818 34.5402C7.20431 34.5402 7.19044 34.5402 7.1627 34.5402C7.17657 34.5402 7.19044 34.5266 7.21818 34.5266C7.24593 34.5266 7.2598 34.513 7.28754 34.513C7.32916 34.4994 7.3569 34.4994 7.39851 34.4859C7.44013 34.4723 7.49561 34.4587 7.53723 34.4451C7.6482 34.418 7.75917 34.3772 7.85627 34.35C7.87014 34.35 7.88402 34.3365 7.91176 34.3365C7.91176 34.3365 7.91176 34.3365 7.92563 34.3365C8.05047 34.2957 8.17532 34.255 8.28629 34.2142C8.43888 34.1599 8.59146 34.1056 8.74405 34.0512C8.88276 33.9969 9.00761 33.9426 9.14632 33.8882C9.18794 33.8747 9.21568 33.8611 9.25729 33.8475C9.27116 33.8475 9.27116 33.8475 9.28504 33.8339C9.39601 33.7932 9.49311 33.7388 9.59021 33.6981C9.61795 33.6845 9.63182 33.6845 9.65957 33.6709C9.79828 33.603 9.937 33.5351 10.0618 33.4672C10.1589 33.6845 10.256 33.9018 10.3531 34.1191C10.3809 34.2006 10.4225 34.2685 10.4641 34.3365C10.8525 35.165 11.2825 35.9664 11.7542 36.7406C11.7958 36.8085 11.8374 36.8764 11.879 36.9443C11.9484 36.9035 12.0177 36.8764 12.1009 36.8356C13.2107 36.238 14.2372 35.5317 15.1804 34.7032C15.2359 34.6489 15.3053 34.5945 15.3746 34.5402C15.333 34.4723 15.2914 34.3908 15.2498 34.3229C15.0417 33.9697 14.8336 33.603 14.6533 33.2363C14.6117 33.1684 14.5839 33.1005 14.5423 33.019C14.1678 32.2855 13.8349 31.5521 13.5575 30.7914C13.5158 30.7099 13.4881 30.6149 13.4604 30.5198C13.3494 30.2074 13.2384 29.9086 13.1413 29.5962C13.1136 29.5283 13.0858 29.4468 13.0719 29.3653C12.7113 28.1972 12.4339 26.9884 12.2535 25.7523C12.2397 25.6709 12.2258 25.5894 12.2119 25.5079C12.1287 25.535 12.0455 25.5622 11.9761 25.5894C10.7832 25.9833 9.56247 26.2956 8.31403 26.4994C8.2308 26.513 8.14757 26.5266 8.06435 26.5401C6.84365 26.7439 5.59522 26.8525 4.31904 26.8525C4.13871 25.6437 4.04161 24.4213 4 23.1853H4.04161C5.30392 23.1853 6.53848 23.0766 7.7453 22.8593C7.82853 22.8457 7.91176 22.8321 7.99499 22.8185C8.84115 22.6691 9.65957 22.4518 10.4641 22.1937C10.5473 22.1666 10.6306 22.1394 10.7138 22.1123C11.0606 22.0036 11.4074 21.8678 11.7403 21.7455C11.8235 21.7184 11.9067 21.6776 11.99 21.6505C11.99 21.569 11.99 21.4739 12.0038 21.3924C12.0455 20.265 12.1703 19.1513 12.3784 18.0511C12.3922 17.9424 12.42 17.8202 12.4477 17.7115C12.4893 17.4806 12.5448 17.2362 12.6003 17.0053C12.6281 16.8966 12.6558 16.7879 12.6835 16.6657C12.8916 15.8236 13.1413 14.9951 13.4465 14.1801C13.4881 14.085 13.5158 14.0035 13.5436 13.922C13.4881 13.8541 13.4187 13.7862 13.3494 13.7319C12.961 13.3244 12.5448 12.9441 12.1009 12.6045C12.0316 12.5502 11.9622 12.4959 11.8929 12.4416C11.3796 12.0477 10.8386 11.6945 10.256 11.3821C10.1867 11.3414 10.1173 11.3006 10.048 11.2735C10.0064 11.3414 9.97861 11.4229 9.95087 11.5044C9.85377 11.7217 9.75667 11.9526 9.67344 12.1699C9.63182 12.2786 9.57634 12.4008 9.54859 12.5095C9.34052 13.0528 9.14632 13.5961 8.97986 14.1529C8.17532 14.4925 7.34303 14.737 6.45525 14.9136C6.37202 14.9271 6.28879 14.9407 6.21944 14.9543C5.76168 15.0358 5.30392 15.0901 4.83229 15.1173C5.01262 14.3703 5.22069 13.6232 5.44263 12.8898C5.48425 12.7539 5.52586 12.6317 5.56748 12.4959C5.81716 11.7353 6.09459 10.9882 6.39977 10.2548C6.42751 10.1733 6.46912 10.0918 6.49687 10.0239C6.95463 8.93728 7.49561 7.87785 8.07822 6.84558C8.11983 6.77767 8.16145 6.70976 8.18919 6.64185C8.2308 6.65543 8.25855 6.65543 8.30016 6.66901C9.50698 6.98141 10.6583 7.42963 11.7403 8.00009C11.8096 8.04084 11.879 8.068 11.9484 8.10875C12.1148 8.19024 12.2813 8.28532 12.4339 8.3804C12.531 8.43473 12.6281 8.50264 12.739 8.55697C13.3355 8.9237 13.9042 9.31759 14.4452 9.75223C14.5146 9.80656 14.5701 9.8473 14.6394 9.91522C14.7643 10.0239 14.903 10.1325 15.0278 10.2412C15.0833 10.2955 15.1527 10.3499 15.222 10.4042C15.3885 10.5536 15.5549 10.7166 15.7214 10.8796C16.2763 11.4229 16.7895 12.0069 17.2611 12.6181C17.3166 12.686 17.3721 12.7539 17.4137 12.8219C17.5663 13.012 17.705 13.2158 17.8299 13.4059C17.3028 14.4518 16.8727 15.5519 16.5398 16.6929C16.5121 16.7879 16.4843 16.8966 16.4566 16.9917C16.3317 17.4127 16.2346 17.8474 16.1375 18.282C16.1237 18.3092 16.1237 18.3499 16.1237 18.3771C16.0959 18.4857 16.0821 18.608 16.0543 18.7302C16.0543 18.7574 16.0404 18.771 16.0404 18.7981C16.0127 18.9475 15.985 19.097 15.9572 19.2464C15.9433 19.355 15.9295 19.4637 15.9156 19.5723C15.8046 20.333 15.7491 21.1207 15.7214 21.9085C15.7214 22.0308 15.7075 22.1394 15.7214 22.2617C15.7214 22.3024 15.7214 22.3432 15.7214 22.3703C15.7214 22.9 15.7353 23.4433 15.7769 23.9731C15.7908 24.0545 15.7908 24.1496 15.8046 24.2311C15.8601 24.8152 15.9295 25.3856 16.0404 25.9425C16.0682 26.1191 16.0959 26.2821 16.1375 26.4451C16.2346 26.934 16.3595 27.4094 16.4982 27.8984C16.5121 27.9255 16.5121 27.9527 16.526 27.9935C16.5537 28.0749 16.5676 28.1429 16.5953 28.2244C16.5814 28.2379 16.5676 28.2379 16.5537 28.2379C16.5676 28.2515 16.5953 28.2787 16.6092 28.2787C16.9282 29.3245 17.3444 30.3432 17.8299 31.3076C17.8437 31.3483 17.8715 31.3891 17.8854 31.4298C17.8854 31.4434 17.8992 31.457 17.8992 31.457C17.8992 31.4706 17.9131 31.4841 17.9131 31.4841C17.927 31.5113 17.927 31.5249 17.9408 31.5521C17.9547 31.5792 17.9686 31.5928 17.9825 31.62C18.0241 31.6879 18.0518 31.7558 18.0934 31.8237C18.7315 32.9103 19.3973 33.929 20.1603 34.8798Z" fill="black"/>
</g>
<defs>
<filter id="filter0_d_6_411" x="0" y="0" width="40.6118" height="58.0105" filterUnits="userSpaceOnUse" color-interpolation-filters="sRGB">
<feFlood flood-opacity="0" result="BackgroundImageFix"/>
<feColorMatrix in="SourceAlpha" type="matrix" values="0 0 0 0 0 0 0 0 0 0 0 0 0 0 0 0 0 0 127 0" result="hardAlpha"/>
<feOffset dy="4"/>
<feGaussianBlur stdDeviation="2"/>
<feComposite in2="hardAlpha" operator="out"/>
<feColorMatrix type="matrix" values="0 0 0 0 0 0 0 0 0 0 0 0 0 0 0 0 0 0 0.6 0"/>
<feBlend mode="normal" in2="BackgroundImageFix" result="effect1_dropShadow_6_411"/>
<feBlend mode="normal" in="SourceGraphic" in2="effect1_dropShadow_6_411" result="shape"/>
</filter>
</defs>
</svg>
