<svg width="100" height="51" viewBox="0 0 100 51" fill="none" xmlns="http://www.w3.org/2000/svg">
<g clip-path="url(#clip0_69_106)">
<g filter="url(#filter0_d_69_106)">
<path d="M48.3626 9.12056C48.123 9.2572 47.6438 9.76959 46.9649 10.6577C46.0463 10.931 44.0895 11.9558 41.0144 13.8346V15.0301L41.4137 15.7133L42.532 16.3282L42.1326 17.5238L42.532 18.4802C43.5703 18.8902 45.0479 19.6075 47.0048 20.7006L48.0032 22.8868V23.57L47.2843 25.1072V26.0636L46.6853 26.8493C46.0863 27.225 45.0479 27.6691 43.6502 28.2157L41.853 29.5137C41.5336 30.2652 41.4137 30.641 41.4537 30.7093L40.7348 31.0509L40.3355 32.0074C39.4968 32.6222 36.8211 32.9638 32.3083 32.9638C32.0288 32.9638 31.6294 33.0321 31.0703 33.1688C30.5112 33.3054 30.0719 33.3396 29.7125 33.3054C29.2732 33.6812 28.5144 33.9886 27.476 34.2619C26.6374 34.4668 25.7987 34.6718 24.9601 34.8768C24.1613 35.1842 23.3626 35.4916 22.6038 35.7991C21.845 36.1065 20.9265 36.209 19.8482 36.0723L18.3307 37.0288C17.6917 37.0971 16.4537 37.507 14.6166 38.2585C12.5799 39.1125 11.1422 39.6591 10.3035 39.8299L8.50639 41.1621V41.4354C8.30671 41.5378 8.06709 41.777 7.78754 42.1185C7.06869 42.426 6.54952 42.7334 6.26997 43.075H5.87061L5.55112 43.6899V44.6463L6.26997 45.6028V46.2177L4.43291 47.1741L1.51757 46.5593L0 45.4662V43.929H0.399361V43.5874L2.19649 42.9725C2.31629 42.7676 2.47604 42.4943 2.75559 42.1527C3.03514 41.8111 3.19489 41.5378 3.3147 41.3329H3.59425C5.15176 39.9323 6.86901 38.8734 8.74601 38.1902V37.5753C9.66454 37.1313 11.0224 36.4822 12.8594 35.6966C13.6581 35.5599 14.8562 35.1159 16.4537 34.3985H17.5719C17.8914 34.1936 18.2907 33.9886 18.6901 33.7837L23.8019 32.4856C24.0815 32.3148 24.4409 32.1098 24.9201 31.8707C27.9153 30.8459 29.6326 30.3336 30.0719 30.3336L30.4712 29.992L34.4649 29.0355V28.7622H36.262C36.5016 28.4889 36.861 28.1815 37.3802 27.8058C37.7396 26.8493 37.7796 25.9611 37.5 25.1413L37.8994 23.7749L37.6997 22.4769C36.6613 22.0328 35.1038 21.4863 32.9872 20.8031L32.2684 21.4863C31.3498 21.7595 30.1118 21.862 28.5543 21.7595C28.0351 21.4179 27.6757 21.008 27.4361 20.564L25.1997 19.9491V17.7287L26.3578 16.7723L29.353 15.8158V15.5425C30.0719 14.9618 31.4297 14.347 33.3466 13.6638V13.3222H36.262L37.6597 12.7073L38.0591 12.0241V11.9558H38.4585L39.1773 10.4186C38.3786 9.97455 36.901 9.87207 34.7843 10.077C34.5048 9.83791 34.1454 9.32552 33.6661 8.53985L32.9473 8.19826H30.7508C30.1118 8.3349 29.7524 8.47153 29.6326 8.53985C29.0335 8.40321 28.2748 7.85666 27.4361 6.9002C27.3562 6.9002 27.2364 6.9002 27.0767 6.93436C26.9169 6.96852 26.7971 6.96852 26.7173 6.96852C26.5974 6.96852 26.3978 6.96852 26.1581 6.93436C25.9185 6.9002 25.7588 6.9002 25.599 6.9002L24.2013 7.85666C23.6821 8.64233 23.2827 9.29136 23.0831 9.73543L21.9649 10.4186V11.0335H21.5655L20.8866 11.9558H20.4872V12.9123L19.369 13.5271H17.9712C17.3323 13.288 16.8131 12.9806 16.4537 12.5707L16.853 11.2726L17.5719 10.6577V10.3845C17.9313 10.1453 18.2907 9.73543 18.6901 9.0864L21.2061 8.47153C22.0048 7.78834 22.6438 7.34427 23.123 7.17348V5.9779L25.2396 4.03081L25.6789 2.39116L26.3578 2.22036C27.0767 1.50301 27.7955 0.990623 28.5543 0.683188L30.2716 0.512391L30.4712 0H31.1901C31.5895 0 32.1885 0.102478 32.9872 0.341594L33.7061 0.956463L34.5048 2.49364C35.3834 3.10851 36.7013 3.51842 38.4984 3.79169L38.8179 4.44072L39.9361 5.12391L41.0543 6.66108V6.93436C42.2923 7.24179 43.4105 7.37843 44.369 7.27595L45.0879 6.93436L46.6054 7.61755L48.0431 9.15472L48.3626 9.12056Z" fill="#39BEE7"/>
<path d="M81.0702 30.9485L80.6708 31.6316L78.5542 32.2465L76.4376 31.9049C74.2012 30.3336 71.7251 29.7187 69.0095 30.0262L68.2906 29.4113L66.0941 28.7964L64.9759 27.84C64.2171 27.4984 63.4584 27.3959 62.7794 27.4984C61.2219 28.3182 60.2635 28.9672 59.8242 29.3771C59.1053 29.4796 58.3865 29.5479 57.6277 29.5479C56.8689 29.5479 56.1101 29.4796 55.4312 29.3771L53.9136 29.7187L52.7954 31.2559L51.3977 31.8708L49.2012 30.6752V29.138L50.1197 27.9424L51.3178 27.43L51.837 27.5325L52.436 26.5761L54.1533 25.6196L56.1501 25.3463L56.5494 25.0047C57.4679 25.1755 58.706 24.9706 60.1437 24.3899L60.543 23.7067C61.182 23.6042 61.7012 23.2968 62.1005 22.8527H62.8194C63.9376 22.2378 64.5366 21.1789 64.5366 19.6417L65.3354 19.3001C65.6549 19.061 66.214 18.412 66.9328 17.2847C67.4919 16.3966 68.1708 15.85 68.9296 15.6109C70.6469 13.5272 71.4855 11.6142 71.4855 9.90626V6.38785L70.8865 5.02147H70.4871C70.2076 5.02147 68.4104 5.73882 65.0957 7.17351L63.5782 8.81316C62.8993 9.05228 62.42 9.25724 62.1804 9.42803V10.0429H61.3418L60.2235 11.341L59.5047 11.6142V11.9558L57.9871 12.2974L55.8705 11.9558L55.4711 10.7603C56.5494 10.1454 57.9072 9.2914 59.5846 8.19829C61.4616 7.89086 62.6596 7.48095 63.2587 7.00271L63.9775 6.04625V5.43138L66.174 4.47492L66.4935 4.09916C67.7315 3.99669 69.0494 3.58677 70.4871 2.80111L72.0047 3.1427C72.8034 2.93774 73.7619 2.73279 74.92 2.52783L76.4376 3.1427L77.8354 4.47492C78.1149 5.08979 78.4743 5.97793 78.9536 7.20767L78.6341 7.54927C78.7539 7.99334 78.674 8.60821 78.4344 9.39387C78.1548 10.3162 78.035 11.0335 78.035 11.5459C78.035 11.8875 78.075 12.2291 78.1548 12.6049C78.035 12.8098 77.5159 13.5272 76.6373 14.7227C75.7587 15.9525 75.3194 16.5673 75.3194 16.6357C74.4009 17.4213 73.043 18.0704 71.3258 18.5144L70.9264 19.4709L69.8082 20.3249V21.2813H69.4088L68.0111 22.6136L68.4104 22.9552C70.9664 23.57 72.8034 24.4582 73.9216 25.6196L76.4376 26.4053V27.0201L77.1564 27.3617L77.8753 27.4642C78.4743 28.284 79.2331 28.8989 80.0718 29.2746H80.4711L81.0702 30.9485Z" fill="#39BEE7"/>
</g>
<g filter="url(#filter1_d_69_106)">
<path d="M39.8164 41.1964L39.6566 41.5038C39.6167 41.6063 39.4969 41.7088 39.417 41.8112L38.9777 42.187V42.3578C38.778 42.392 38.5783 42.4944 38.4985 42.6311C38.3787 42.7677 38.2588 42.836 38.179 42.836C38.0192 43.1093 37.5799 43.2801 36.941 43.4167C36.7013 43.69 36.3819 43.8267 35.9026 43.8267H35.7429V43.9633H35.1438L34.8243 44.2024L34.5049 44.2366C34.5049 44.3732 34.425 44.4415 34.3052 44.4415L34.0256 44.6123H33.3467L32.9473 44.9198L31.7493 45.1247L31.5895 45.2272L30.9106 45.193C30.9106 45.2613 30.7908 45.398 30.671 45.6029C30.5911 45.5346 30.3116 45.5005 29.8323 45.4663L29.5528 45.6029L29.1534 45.7396C28.9537 45.8421 28.7541 45.9445 28.5144 45.9787L28.3547 46.4569L28.6342 46.9352L28.4745 47.5159L28.6742 48.1991L28.4745 48.3015L28.7141 48.5748V49.053L28.8339 49.2922V49.7362L29.5128 49.7021C29.5927 49.7704 29.6726 49.8729 29.6726 49.9753C29.6726 50.2145 29.4729 50.3511 29.0735 50.3511H28.9138L28.4346 50.4877L28.0352 49.8729L27.516 48.9164V47.8916L27.2365 47.4134L27.4362 47.2084L27.3164 46.7302L27.3563 46.3886L27.1566 46.1837L25.9585 46.0129L25.639 45.6371L27.0767 45.5346L26.917 45.4663C26.9569 45.4321 26.9969 45.4321 27.0767 45.4321C27.1965 45.4321 27.2365 45.4321 27.2764 45.4663V44.8856L27.4761 44.6123L27.556 43.1435L27.7157 42.9727L27.6758 41.8454L27.7956 41.2305L27.8355 39.8642L28.0352 39.4884L28.2748 39.3518L28.2349 38.976C28.2349 38.8052 28.3547 38.7369 28.5544 38.7369C29.1934 38.7369 29.5528 38.9419 29.5528 39.3176C29.5528 39.4201 29.4729 39.5909 29.3132 39.8642C29.1534 40.1374 29.0735 40.3082 29.0735 40.4449C29.0735 40.5815 29.1934 40.8206 29.393 41.1281L29.1135 41.333L29.0735 41.982L28.7141 42.2895L28.8339 42.8019L28.5943 43.3826L28.7141 43.9291L28.5943 44.339L28.6342 44.6465L28.4346 44.9198C28.4745 45.193 28.5943 45.3638 28.8339 45.398L29.5528 45.0222H30.1518C30.4314 44.7831 30.7509 44.6806 31.1502 44.6806L31.3499 44.5098C31.4298 44.544 31.5895 44.544 31.7493 44.544C32.1486 44.544 32.508 44.4074 32.9074 44.1341L33.3866 44.0999L33.7461 43.8267H34.1055L34.1854 43.69L35.7029 43.3143C35.9825 43.2801 36.1023 43.2459 36.1023 43.1435C36.1822 43.0751 36.2221 43.0068 36.262 42.9043C36.3419 42.9043 36.4617 42.9385 36.5815 42.9385C36.8611 42.9385 37.0208 42.8019 37.0608 42.4944C37.3803 42.4603 37.54 42.4261 37.54 42.3236C37.54 42.2212 37.6598 42.187 37.7796 42.1528L37.9394 42.2895L38.0991 41.9137L38.2988 41.7771L38.4186 41.2305C38.2588 40.8548 38.0592 40.5474 37.7796 40.2399L37.5001 40.2058L36.9809 39.7958L35.9026 39.4201C35.2237 38.976 34.5049 38.7369 33.7061 38.6686V38.8394L33.2269 38.5661L32.548 38.6003L32.1486 38.3611H31.6694L31.27 38.1562H30.8707C30.671 38.1562 30.5112 38.0879 30.3914 37.9512L29.2732 37.8146C29.0735 37.8829 28.794 37.9512 28.3946 38.0879L27.7157 37.7463L27.3164 37.9512L26.9969 37.7804L26.3978 37.9512V38.0196H26.3579L25.7988 38.2928L25.3994 38.327C25.2796 38.327 25.0799 38.4295 24.8403 38.5661C24.6007 38.2928 24.441 37.9854 24.3611 37.678L24.6406 37.3364V37.1656C24.6806 37.0972 24.8403 37.0631 25.1598 37.0289C25.4793 36.9948 25.7189 36.9606 25.9585 36.8581C26.1582 36.8923 26.318 36.9265 26.3579 36.9265C26.4378 36.9265 26.5176 36.8923 26.5975 36.824L26.8371 36.9265C26.9969 36.8923 27.0767 36.8581 27.1167 36.8581C27.2365 36.8581 27.3164 36.9265 27.3563 37.0289H28.7541L29.5927 37.0631L30.5512 37.1997C30.5911 37.268 30.671 37.3022 30.7908 37.3364C30.9106 37.3705 30.9505 37.4047 30.9505 37.4388L31.1502 37.268H31.27C31.4697 37.268 31.5895 37.3022 31.5895 37.3705C31.5895 37.4047 31.5895 37.4388 31.5496 37.4388H31.9489C32.4681 37.5755 32.9074 37.6438 33.2269 37.6438L33.3068 37.7804H34.1055L34.6247 38.0879C34.6646 38.122 34.8643 38.1562 35.2237 38.1904L35.3834 38.3953H35.5432C36.0224 38.3953 36.3819 38.5661 36.5815 38.8735L36.941 38.7027V39.0102C37.1007 39.0443 37.3803 39.181 37.6598 39.3859H37.9793L38.2588 39.7275L39.1774 40.2399V40.5132L39.8164 41.1964Z" fill="#39BEE7"/>
<path d="M59.3053 43.7924C59.3053 43.9291 59.2254 43.9974 59.1056 44.0315L58.6264 43.8949L58.1072 44.2365L57.5081 44.1682C57.2685 44.3048 56.989 44.3731 56.7094 44.3731C56.4698 44.3731 56.35 44.4073 56.2701 44.5098C56.0305 44.4073 55.8308 44.3731 55.5912 44.3731C55.3915 44.3731 55.2717 44.4415 55.2318 44.5439C55.2717 44.6123 55.3516 44.6806 55.4315 44.7489L55.3516 44.988L55.4315 45.8078L55.7909 46.2861L55.8708 46.7301L56.5097 47.5158L56.4299 47.8916L56.8692 48.2332L57.5481 49.1896C57.9075 49.5312 58.1072 49.7703 58.1471 49.907L58.6663 50.1461L58.866 50.5218L59.0657 50.6585L58.7062 50.8976L58.227 50.5902H57.9474L57.588 50.351H57.3085L57.0289 49.9411L56.7094 49.8728C56.4698 49.4971 56.2302 49.1896 55.9506 48.9505V48.7114L55.6711 48.5064L55.6312 48.1307L55.1919 47.7208L54.5928 46.491L54.3931 46.2861L54.3133 45.6712C54.3133 45.6029 54.1935 45.4321 53.9538 45.0905V44.5781H53.6343L53.2749 44.7831L52.7158 44.6806L52.3165 44.8855L52.1567 44.7489L51.8372 44.9197L51.7574 44.7489C51.7174 44.7489 51.5976 44.7831 51.4778 44.8172C51.318 44.8514 51.1583 44.8855 50.9986 44.8855L50.6391 44.8514H50.1599L49.6807 45.1247L49.1615 45.0222L48.4427 45.0563V45.193L48.203 45.0563L47.8436 45.2271L47.604 45.0563H47.1248L46.6455 45.2271L46.2861 44.8855L46.0864 45.0222L45.6871 44.8855C45.3676 45.0222 44.9283 45.4321 44.3692 46.1494L43.8899 46.2519C43.1312 47.2767 42.6919 47.7549 42.6519 47.7891L42.4123 47.9257L41.6136 48.8139H41.4538L40.7749 49.7703L40.0161 50.1802L39.457 50.0436L39.5369 49.8728V49.5312L39.7366 49.3263L39.6567 49.1555L40.1759 49.0871L40.5353 48.9163C40.8548 48.8139 41.0545 48.6089 41.0944 48.3015C41.4938 48.199 41.7334 48.0282 41.7733 47.7208C42.2126 47.4816 42.5321 47.1401 42.6919 46.6277L43.0912 46.491L44.0097 45.2613V44.9197C43.8899 44.8172 43.7701 44.7147 43.7302 44.5439L44.2893 44.134V43.9632L44.9682 44.0315L45.3276 43.8266L45.4075 43.9291L45.7669 43.485C45.6871 43.485 45.6471 43.4167 45.6471 43.3825C45.6471 43.3484 45.7669 43.2459 46.0465 43.1092L46.1663 43.2459C46.1663 43.0409 46.2861 42.8018 46.4458 42.5285L46.366 42.4944L46.6855 42.4602L46.8053 42.1528C47.0449 42.1186 47.1647 42.0503 47.1647 41.9137V41.6404C47.604 41.2988 47.8436 40.9914 47.8436 40.7181V40.6839L48.203 40.6498L48.2829 40.3082L48.4826 40.274L48.7621 39.7616L48.9618 39.8983L48.8021 39.625C49.0816 39.5908 49.2414 39.4542 49.2813 39.1468L49.481 39.2492V38.771H49.6807V38.4294C49.7206 38.3952 49.8404 38.3269 50.0002 38.1903C50.1599 38.0537 50.2797 37.8829 50.3196 37.6437L50.6391 37.3705L50.4395 36.9947C50.719 36.6873 50.9586 36.5506 51.1982 36.5506H51.2382L51.3979 36.3115L51.5976 36.5506C51.6375 36.5848 51.7174 36.6531 51.8372 36.7214L52.3165 36.9264L52.3564 37.5413C52.4762 37.6437 52.596 37.8145 52.7158 38.0195L52.9554 38.0878L52.9954 38.6344L53.235 39.3517L53.5944 39.9324L53.834 40.7181L53.874 41.2305L54.2733 41.7087L54.1535 41.9137L54.473 42.2211V42.5969L54.5529 42.9384C54.5529 43.0068 54.5129 43.0751 54.4331 43.1776C54.7126 43.7583 55.072 44.0657 55.4315 44.0657L55.9906 43.9632H56.6695C56.8692 43.9974 57.0289 44.0315 57.1887 44.0315C57.4283 44.0315 57.628 43.9974 57.7478 43.8949C57.8676 43.7924 57.9874 43.7583 58.0273 43.7583C58.0673 43.7583 58.2669 43.8266 58.5465 43.9632L59.3053 43.7924ZM53.834 43.2117C53.7142 42.9384 53.5545 42.7677 53.3548 42.6652L53.5145 42.3236L53.1551 42.1528L53.0353 41.2305L52.6759 40.7522L52.6359 40.3423L52.4363 40.0007V39.8641H52.3564L52.3165 39.3517C52.3165 39.2834 52.2765 39.2151 52.1567 39.0784L51.957 38.8052C51.9171 38.771 51.8372 38.7027 51.7174 38.6344C51.5976 38.566 51.4379 38.4636 51.1583 38.3952L50.8388 38.5319L50.6391 38.8052L49.9602 39.6591L49.8005 39.9324C49.7605 40.0007 49.5209 40.2399 49.1216 40.5814L49.0018 40.9914L48.4027 41.2646C48.243 41.8795 47.9634 42.2553 47.5641 42.3577L47.2845 43.1092L46.7254 43.3142V43.5533L46.6455 43.8607C46.965 43.9632 47.2046 44.0316 47.3644 44.0999L47.7238 44.0657L48.2829 44.2023C48.4027 44.2365 48.4826 44.2365 48.5225 44.2365C48.6024 44.2365 48.7621 44.2365 48.9219 44.2023C48.9219 44.2023 48.9618 44.1682 49.0417 44.1682C49.0816 44.1682 49.1615 44.1682 49.2414 44.2023C49.3612 44.2365 49.481 44.2365 49.5609 44.2365L49.9203 44.1682L51.0385 44.0999L51.957 43.9974C52.5561 44.0657 52.9155 44.0999 53.0752 44.0999C53.5145 44.0999 53.7542 44.0315 53.7542 43.8607C53.7542 43.7583 53.6743 43.6216 53.5145 43.4508L53.834 43.2117Z" fill="#39BEE7"/>
<path d="M77.6358 44.8171L77.8754 45.1245L78.8738 45.7736C79.1533 45.9785 79.3131 46.3543 79.3131 46.9008L79.353 47.2766C79.353 47.4132 79.2332 47.6182 78.9936 47.8915C78.754 48.1647 78.4744 48.3697 78.1549 48.4722C78.115 48.5746 77.9952 48.643 77.7955 48.643H77.7156C77.4361 48.8821 77.1166 48.9846 76.7172 48.9846C76.5974 49.1212 76.4377 49.2237 76.1981 49.3262L75.599 49.292L75.0799 49.7019L74.8402 49.5653L74.4808 49.6677C74.0815 49.6677 73.8418 49.7019 73.8019 49.7702L72.8834 49.7019C72.484 49.8385 72.2045 49.9069 72.0447 49.9069L71.246 49.8727L70.6869 50.0777L70.3674 50.0435C70.3275 50.0093 70.2476 49.9752 70.2077 49.9752C70.1278 49.9752 70.0479 50.0093 69.968 50.1118H69.0495L68.77 49.9752L68.5703 50.1118L67.2125 50.0777L66.5335 49.9752C66.3339 50.0435 66.1741 50.1118 66.0543 50.1118C65.8546 50.1118 65.5751 50.0093 65.2556 49.8044L64.7763 49.9752L64.6166 49.8385H64.2971C63.9377 49.8385 63.6182 49.8044 63.2987 49.7019C62.9792 49.5994 62.7795 49.5653 62.6997 49.5653C62.6597 49.5653 62.6198 49.5653 62.5399 49.5994L61.5415 48.9846L60.9025 48.8479C60.4632 48.3697 60.2236 47.9939 60.2236 47.7207C60.2236 47.6182 60.3035 47.3791 60.4233 47.0375L60.623 47.0716C60.7827 47.0716 60.9025 46.9692 60.9425 46.7984L61.3818 46.7642L61.1821 46.6959L61.5016 46.6617C61.6613 46.4909 61.7811 46.4226 61.861 46.4226C62.0607 46.4226 62.1805 46.5592 62.1805 46.8667C61.9409 46.9008 61.7013 47.0375 61.5016 47.2083C61.5016 47.2766 61.4217 47.3449 61.262 47.4132C61.1022 47.4815 61.0224 47.5499 60.9425 47.584L61.0224 47.7207V48.1306C61.3418 48.2672 61.6214 48.5063 61.9009 48.7796L62.2604 48.8138C62.3802 48.8138 62.5799 48.9162 62.8195 49.0529L63.3387 49.0187L63.2987 48.8821L64.0575 48.9162L63.8978 49.0187L64.5367 49.1212L64.6166 49.2578H65.9345V49.3262C66.0543 49.2237 66.1741 49.1895 66.3339 49.1895C66.4137 49.1895 66.4936 49.2237 66.6134 49.2578C66.7332 49.292 66.9329 49.3262 67.2524 49.3262L67.2923 49.4628L67.6917 49.4969H68.131L68.4105 49.5994L68.2907 49.4969C68.5703 49.3945 68.77 49.3603 68.9297 49.3603C69.0096 49.3603 69.1294 49.3945 69.2093 49.4969C69.369 49.3945 69.5687 49.3603 69.8083 49.3603C70.008 49.3603 70.2476 49.3945 70.4872 49.4628C70.607 49.3945 70.7268 49.3262 70.8866 49.3262C71.0463 49.3262 71.1661 49.3603 71.3259 49.4628L72.3642 49.2237L72.5639 48.9846L73.4425 49.087L74.1613 48.9504L74.0415 48.9162C74.0815 48.8821 74.4009 48.8479 75.0399 48.8479C75.0799 48.7796 75.1597 48.7796 75.1997 48.7796L75.3994 48.8138L76.1182 48.5405L76.2779 48.5746V48.438H76.7572V48.4038C76.7572 48.2672 76.9169 48.1647 77.1965 48.1647H77.3962L77.516 48.0623L77.4361 47.9598C77.5958 47.8231 77.7156 47.7548 77.7556 47.7548C77.9553 47.7548 78.0751 47.6865 78.0751 47.5499C78.3147 47.2424 78.4345 47.0375 78.4345 46.9008C78.4345 46.5251 77.7156 46.081 76.238 45.5345L74.9601 45.0904C74.6406 45.0904 74.1613 44.9879 73.5623 44.8171C73.2827 44.6463 72.9633 44.5438 72.6038 44.5438C72.3642 44.5438 72.1645 44.5438 72.0447 44.578L71.885 44.373L71.4856 44.5097L71.1661 44.2022L70.7268 44.3047L69.9281 43.9631H69.4089L69.0894 43.7582H68.6102L68.4105 43.5191L68.3706 43.6557H68.0511L67.6517 43.2458C66.7332 43.2458 66.1342 43.1091 65.8546 42.8359L65.5351 42.9042L65.3355 42.4943L64.8562 42.0844C64.6166 41.572 64.4169 41.2304 64.2971 41.0937L64.4169 40.3764L64.8962 39.864C65.0559 39.7957 65.2156 39.659 65.2955 39.4199C65.5751 39.2491 65.8147 39.1808 65.9744 39.1466C66.0144 39.215 66.0942 39.2491 66.1342 39.2491L66.4137 38.9075L66.5335 39.0783L66.5735 38.9075L67.6118 38.6001L67.2923 38.5318L67.5719 38.5659C67.8914 38.5659 68.091 38.4635 68.1709 38.2927C68.6102 38.2927 69.0894 38.2243 69.6486 38.1219L69.4888 38.0194C69.5287 37.9852 69.6086 37.9852 69.7284 37.9852C69.8882 37.9852 69.968 37.9852 70.008 38.0194L69.9281 37.9511L70.1677 37.9852C70.3674 37.9852 70.4872 37.9169 70.5272 37.7803H70.6869L71.0064 37.7461C71.0463 37.7461 71.0863 37.7461 71.0863 37.7803V37.8828C71.2061 37.8144 71.3259 37.7461 71.4457 37.7461H71.6054L73.3227 37.6095L73.4025 37.7461V37.5753L73.762 37.3704C73.8418 37.5412 74.0415 37.6095 74.3211 37.6095H74.4808C74.9201 37.6095 75.2396 37.6436 75.3994 37.7461L75.1997 37.7803C75.5591 37.7803 76.0783 37.8828 76.7572 38.0535C77.4361 38.2585 77.7955 38.5318 77.7955 38.9759C77.7955 39.2833 77.5559 39.4882 77.0767 39.5566L76.9569 39.3516L75.9984 39.0783H75.599L75.2795 38.7367L74.6805 38.8051L74.4808 38.6343L74.2412 38.9075L73.8418 38.6343L72.9632 38.7367L72.0048 38.4976L71.7252 38.6343C71.1262 38.6684 70.7668 38.7026 70.647 38.7709C70.607 38.7709 70.5271 38.7367 70.4473 38.7367C70.2875 38.7367 70.1677 38.8051 70.0479 38.9417L69.369 38.9759L67.5719 39.5566L67.1326 39.4541L66.4537 39.8982H66.0942L65.8147 40.2398L65.0958 40.6838C65.016 40.718 64.976 40.7521 64.976 40.7863V40.8205C65.0559 41.0937 65.1358 41.2987 65.1358 41.4695L65.4153 41.6061L65.5751 41.8452L66.0144 41.9477L66.3339 42.1527C66.4137 42.221 66.6933 42.3235 67.1326 42.4601L67.1725 42.5967H67.8514L68.6901 43.075L69.0495 42.9725C69.2492 43.0408 69.4888 43.1091 69.7284 43.2458C69.968 43.3824 70.1278 43.4507 70.2077 43.4507C70.2875 43.4507 70.4073 43.4166 70.5272 43.3483V43.5191L71.5256 43.5874L71.8051 43.7582V43.6899H72.0048L72.4441 43.929C72.9632 43.929 73.3227 43.9631 73.4824 44.0656C73.6022 44.0656 73.722 44.0314 73.9217 44.0314C74.1613 44.0314 74.361 44.0998 74.5607 44.2706C74.7604 44.4414 74.8802 44.5097 74.9601 44.5097H75L75.3195 44.4414L75.5192 44.5097H75.9185L76.7172 44.9879L77.6358 44.8171Z" fill="#39BEE7"/>
<path d="M98.3228 44.8172L98.5624 45.1247L99.5608 45.7737C99.8404 45.9787 100 46.3544 100 46.901L100.04 47.2767C100.04 47.4133 99.9202 47.6183 99.6806 47.8916C99.441 48.1649 99.1614 48.3698 98.842 48.4723C98.802 48.5748 98.6822 48.6431 98.4825 48.6431H98.4027C98.1231 48.8822 97.8036 48.9847 97.4043 48.9847C97.2844 49.1213 97.1247 49.2238 96.8851 49.3263L96.286 49.2921L95.7669 49.702L95.5273 49.5654L95.1678 49.6679C94.7685 49.6679 94.5289 49.702 94.4889 49.7703L93.5704 49.702C93.171 49.8387 92.8915 49.907 92.7317 49.907L91.933 49.8728L91.3739 50.0778L91.0544 50.0436C91.0145 50.0095 90.9346 49.9753 90.8947 49.9753C90.8148 49.9753 90.7349 50.0095 90.6551 50.1119H89.7365L89.457 49.9753L89.2573 50.1119L87.8995 50.0778L87.2205 49.9753C87.0209 50.0436 86.8611 50.1119 86.7413 50.1119C86.5416 50.1119 86.2621 50.0095 85.9426 49.8045L85.4634 49.9753L85.3036 49.8387H84.9841C84.6247 49.8387 84.3052 49.8045 83.9857 49.702C83.6662 49.5996 83.4666 49.5654 83.3867 49.5654C83.3467 49.5654 83.3068 49.5654 83.2269 49.5995L82.2285 48.9847L81.5896 48.848C81.1503 48.3698 80.9106 47.9941 80.9106 47.7208C80.9106 47.6183 80.9905 47.3792 81.1103 47.0376L81.31 47.0718C81.4698 47.0718 81.5896 46.9693 81.6295 46.7985L82.0688 46.7643L81.8691 46.696L82.1886 46.6618C82.3483 46.491 82.4681 46.4227 82.548 46.4227C82.7477 46.4227 82.8675 46.5594 82.8675 46.8668C82.6279 46.901 82.3883 47.0376 82.1886 47.2084C82.1886 47.2767 82.1087 47.345 81.949 47.4133C81.7892 47.4817 81.7094 47.55 81.6295 47.5841L81.7094 47.7208V48.1307C82.0289 48.2673 82.3084 48.5065 82.588 48.7797L82.9474 48.8139C83.0672 48.8139 83.2669 48.9164 83.5065 49.053L84.0257 49.0188L83.9857 48.8822L84.7445 48.9164L84.5848 49.0188L85.2237 49.1213L85.3036 49.258H86.6215V49.3263C86.7413 49.2238 86.8611 49.1896 87.0209 49.1896C87.1007 49.1896 87.1806 49.2238 87.3004 49.258C87.4202 49.2921 87.6199 49.3263 87.9394 49.3263L87.9793 49.4629L88.3787 49.4971H88.818L89.0975 49.5995L88.9777 49.4971C89.2573 49.3946 89.457 49.3604 89.6167 49.3604C89.6966 49.3604 89.8164 49.3946 89.8963 49.4971C90.056 49.3946 90.2557 49.3604 90.4953 49.3604C90.695 49.3604 90.9346 49.3946 91.1742 49.4629C91.294 49.3946 91.4138 49.3263 91.5736 49.3263C91.7333 49.3263 91.8531 49.3604 92.0129 49.4629L93.0512 49.2238L93.2509 48.9847L94.1295 49.0872L94.8483 48.9505L94.7285 48.9164C94.7685 48.8822 95.088 48.848 95.7269 48.848C95.7669 48.7797 95.8467 48.7797 95.8867 48.7797L96.0864 48.8139L96.8052 48.5406L96.965 48.5748V48.4381H97.4442V48.404C97.4442 48.2673 97.6039 48.1649 97.8835 48.1649H98.0832L98.203 48.0624L98.1231 47.9599C98.2828 47.8233 98.4027 47.7549 98.4426 47.7549C98.6423 47.7549 98.7621 47.6866 98.7621 47.55C99.0017 47.2425 99.1215 47.0376 99.1215 46.901C99.1215 46.5252 98.4027 46.0811 96.925 45.5346L95.6471 45.0905C95.3276 45.0905 94.8483 44.988 94.2493 44.8172C93.9697 44.6464 93.6503 44.544 93.2908 44.544C93.0512 44.544 92.8515 44.544 92.7317 44.5781L92.572 44.3732L92.1726 44.5098L91.8531 44.2024L91.4138 44.3048L90.6151 43.9632H90.0959L89.7765 43.7583H89.2972L89.0975 43.5192L89.0576 43.6558H88.7381L88.3388 43.2459C87.4202 43.2459 86.8212 43.1093 86.5416 42.836L86.2621 42.6994L86.0624 42.2894L85.5832 41.8795C85.3436 41.3671 85.1439 41.0255 85.0241 40.8889L85.1439 40.1716L85.6231 39.6592C85.7828 39.5908 85.9426 39.4542 86.0225 39.2151C86.302 39.0443 86.5416 38.976 86.7014 38.9418C86.7413 39.0101 86.8212 39.0443 86.8611 39.0443L87.1407 38.7027L87.2605 38.8735L87.3004 38.7027L88.3388 38.3953L88.0193 38.3269L88.2988 38.3611C88.6183 38.3611 88.818 38.2586 88.8979 38.0878C89.3372 38.0878 89.8164 38.0195 90.3755 37.917L90.2158 37.8146C90.2557 37.7804 90.3356 37.7804 90.4554 37.7804C90.6151 37.7804 90.695 37.7804 90.7349 37.8146L90.6551 37.7462L90.8947 37.7804C91.0944 37.7804 91.2142 37.7121 91.2541 37.5754H91.4138L91.7333 37.5413C91.7733 37.5413 91.8132 37.5413 91.8132 37.5754V37.6779C91.933 37.6096 92.0528 37.5413 92.1726 37.5413H92.3324L94.0496 37.4046L94.1295 37.5413V37.3705L94.4889 37.1655C94.5688 37.3363 94.7685 37.4046 95.048 37.4046H95.2078C95.6471 37.4046 95.9666 37.4388 96.1263 37.5413L95.9266 37.5754C96.286 37.5754 96.8052 37.6779 97.4841 37.8487C98.163 38.0537 98.5225 38.3269 98.5225 38.771C98.5225 39.0785 98.2828 39.2834 97.8036 39.3517L97.6838 39.1468L96.7253 38.8735H96.326L96.0065 38.5319L95.4074 38.6002L95.2078 38.4294L94.9682 38.7027L94.5688 38.4294L93.6902 38.5319L92.7317 38.2928L92.4522 38.4294C91.8531 38.4636 91.4937 38.4977 91.3739 38.5661C91.334 38.5661 91.2541 38.5319 91.1742 38.5319C91.0145 38.5319 90.8947 38.6002 90.7749 38.7369L90.0959 38.771L88.2988 39.3517L87.8595 39.2493L87.1806 39.6933H86.8212L86.5416 40.0349L85.8228 40.479C85.7429 40.5131 85.703 40.5473 85.703 40.5815V40.6156C85.7828 40.8889 85.8627 41.0939 85.8627 41.2647L86.1423 41.4013L86.302 41.6404L86.7413 41.7429L87.0608 41.9478C87.1407 42.0162 87.4202 42.1186 87.8595 42.2553L87.8995 42.3919H88.5784L89.417 42.8701L89.7765 42.7677C89.9761 42.836 90.2158 42.9043 90.4554 43.0409C90.695 43.1776 90.8547 43.2459 90.9346 43.2459C91.0145 43.2459 91.1343 43.2117 91.2541 43.1434V43.3142L92.2525 43.3825L92.532 43.5533V43.485H92.7317L93.171 43.7241C93.6902 43.7241 94.0496 43.7583 94.2094 43.8608C94.3292 43.8608 94.449 43.8266 94.6487 43.8266C94.8883 43.8266 95.088 43.8949 95.2876 44.0657C95.4873 44.2365 95.6071 44.3048 95.687 44.3048H95.7269L96.0464 44.2365L96.2461 44.3048H96.6455L97.4442 44.7831L98.3228 44.8172Z" fill="#39BEE7"/>
</g>
</g>
<defs>
<filter id="filter0_d_69_106" x="-4" y="0" width="89.0701" height="55.1741" filterUnits="userSpaceOnUse" color-interpolation-filters="sRGB">
<feFlood flood-opacity="0" result="BackgroundImageFix"/>
<feColorMatrix in="SourceAlpha" type="matrix" values="0 0 0 0 0 0 0 0 0 0 0 0 0 0 0 0 0 0 127 0" result="hardAlpha"/>
<feOffset dy="4"/>
<feGaussianBlur stdDeviation="2"/>
<feComposite in2="hardAlpha" operator="out"/>
<feColorMatrix type="matrix" values="0 0 0 0 0 0 0 0 0 0 0 0 0 0 0 0 0 0 0.6 0"/>
<feBlend mode="normal" in2="BackgroundImageFix" result="effect1_dropShadow_69_106"/>
<feBlend mode="normal" in="SourceGraphic" in2="effect1_dropShadow_69_106" result="shape"/>
</filter>
<filter id="filter1_d_69_106" x="21.3611" y="36.3115" width="83.679" height="22.5862" filterUnits="userSpaceOnUse" color-interpolation-filters="sRGB">
<feFlood flood-opacity="0" result="BackgroundImageFix"/>
<feColorMatrix in="SourceAlpha" type="matrix" values="0 0 0 0 0 0 0 0 0 0 0 0 0 0 0 0 0 0 127 0" result="hardAlpha"/>
<feOffset dx="1" dy="4"/>
<feGaussianBlur stdDeviation="2"/>
<feComposite in2="hardAlpha" operator="out"/>
<feColorMatrix type="matrix" values="0 0 0 0 0 0 0 0 0 0 0 0 0 0 0 0 0 0 0.6 0"/>
<feBlend mode="normal" in2="BackgroundImageFix" result="effect1_dropShadow_69_106"/>
<feBlend mode="normal" in="SourceGraphic" in2="effect1_dropShadow_69_106" result="shape"/>
</filter>
<clipPath id="clip0_69_106">
<rect width="100" height="51" fill="white"/>
</clipPath>
</defs>
</svg>
