<svg width="14" height="20" viewBox="0 0 14 20" fill="none" xmlns="http://www.w3.org/2000/svg">
<path d="M13.0899 8.21988L6.08995 19.6399C5.95259 19.8618 5.71095 19.9977 5.44995 19.9999H5.24995C5.10988 19.9996 4.97608 19.9418 4.87995 19.8399C4.78431 19.7376 4.737 19.5993 4.74995 19.4599L5.30995 12.9999H1.73995C1.47135 12.997 1.22424 12.8525 1.08995 12.6199L0.899949 12.2899C0.804509 12.1333 0.804509 11.9365 0.899949 11.7799L7.89995 0.35988C8.04104 0.13185 8.29185 -0.00495513 8.55995 -0.000120103H8.75995C8.90002 0.000139597 9.03382 0.057999 9.12995 0.15988C9.22559 0.262154 9.2729 0.400457 9.25995 0.53988L8.68995 6.99988H12.2599C12.5285 7.00278 12.7757 7.14725 12.9099 7.37988L13.0999 7.70988C13.1923 7.86835 13.1885 8.06515 13.0899 8.21988Z" fill="black"/>
</svg>
