<svg width="41" height="55" viewBox="0 0 41 55" fill="none" xmlns="http://www.w3.org/2000/svg">
<g filter="url(#filter0_d_6_661)">
<path d="M29.9396 3.00546C29.5928 3.1059 29.246 3.21889 28.9131 3.34444C28.8298 3.36955 28.7466 3.40721 28.6634 3.43232C28.6634 3.52021 28.6634 3.59554 28.6495 3.67087C28.6079 4.71291 28.4831 5.7424 28.275 6.75934C27.734 6.01861 27.1653 5.29043 26.5549 4.59992C26.4994 4.53715 26.4578 4.48693 26.4023 4.42415C26.333 4.46182 26.2498 4.49948 26.1804 4.53715C25.681 4.8008 25.1955 5.077 24.7239 5.37832C24.6268 5.44109 24.5297 5.49131 24.4465 5.55408C24.4465 5.55408 24.4326 5.55408 24.4326 5.56664C24.3632 5.61686 24.28 5.66708 24.2106 5.7173C23.8361 5.96839 23.4616 6.23204 23.1148 6.50825C23.0454 6.55847 22.99 6.60869 22.9206 6.6589C22.2964 7.14854 21.7138 7.66329 21.1728 8.2157C20.8954 7.5754 20.6734 6.91 20.4931 6.23204C20.4515 6.05627 20.4099 5.86795 20.3682 5.67963C20.3682 5.69219 20.3682 5.69219 20.3682 5.70474C20.3544 5.79262 20.3266 5.88051 20.3128 5.95584C20.285 6.04372 20.2711 6.14416 20.2434 6.23204C20.0631 6.93511 19.8273 7.62562 19.536 8.30358C18.9672 7.72606 18.3569 7.17365 17.7049 6.67146C17.6494 6.62124 17.5801 6.57102 17.5107 6.5208C17.1778 6.26971 16.8449 6.03117 16.4981 5.79262C16.4287 5.7424 16.3733 5.70474 16.3039 5.66708C16.3039 5.65452 16.29 5.62941 16.29 5.61686C16.29 5.62941 16.2762 5.64197 16.2762 5.65452C16.1929 5.59175 16.1097 5.54153 16.0126 5.47875C15.4994 5.15233 14.9722 4.83846 14.4312 4.56226C14.3619 4.52459 14.2925 4.48693 14.2093 4.44926C14.1538 4.51204 14.0983 4.56226 14.0567 4.62503C13.4741 5.27788 12.9331 5.95584 12.4199 6.67146C12.2396 5.7173 12.1147 4.73802 12.0731 3.75875C12.0731 3.67087 12.0592 3.59554 12.0592 3.50765C11.976 3.46999 11.8928 3.44488 11.8095 3.40721C11.435 3.26911 11.0466 3.14356 10.6582 3.03057C11.0327 2.59115 11.4211 2.15174 11.8234 1.72487C11.9066 1.63699 12.0037 1.53655 12.087 1.44867C12.4892 1.03436 12.8915 0.645161 13.3077 0.268518C14.1816 0.594942 15.0416 0.959031 15.8739 1.37334C15.9571 1.411 16.0403 1.44867 16.1097 1.49889C16.2762 1.58677 16.4565 1.67465 16.6229 1.76254C16.6923 1.8002 16.7617 1.83787 16.831 1.87553C16.8449 1.88809 16.8726 1.88809 16.8865 1.90064C16.942 1.92575 16.9975 1.96341 17.053 1.98852C18.024 2.54093 18.9672 3.15612 19.855 3.84663C19.9382 3.90941 20.0353 3.98474 20.1186 4.04751C20.174 4.09773 20.2434 4.14795 20.3128 4.19817C20.3682 4.14795 20.4376 4.09773 20.507 4.04751C20.5486 4.00984 20.5902 3.98473 20.6318 3.94707C20.715 3.87174 20.8121 3.80897 20.8954 3.74619C21.7415 3.1059 22.6432 2.51582 23.5726 1.98852C23.6419 1.95086 23.7113 1.91319 23.7945 1.86298C23.8084 1.87553 23.8361 1.90064 23.85 1.91319C23.85 1.88809 23.85 1.85042 23.8639 1.82531C23.9471 1.77509 24.0442 1.72487 24.1274 1.68721C24.2939 1.59933 24.4603 1.51144 24.6268 1.42356C24.71 1.38589 24.7794 1.34823 24.8626 1.29801C25.6671 0.908812 26.4856 0.557278 27.3179 0.243408C27.7756 0.657716 28.2056 1.08458 28.6356 1.524C28.7189 1.61188 28.816 1.71232 28.8992 1.8002C29.2599 2.21451 29.6067 2.60371 29.9396 3.00546Z" fill="#39BEE7"/>
<path d="M36.6118 20.896C36.6118 21.0844 36.6118 21.2601 36.6118 21.4485C36.6118 21.5238 36.6118 21.5991 36.6118 21.6744C36.5841 22.8169 36.4731 23.9469 36.2928 25.0642C36.2928 25.1396 36.2789 25.2149 36.265 25.2902C36.0708 26.4327 35.8212 27.5626 35.4882 28.6675C34.1982 28.6172 32.9359 28.4917 31.6875 28.3034C31.6042 28.2908 31.5349 28.2783 31.4516 28.2657C30.2171 28.0648 28.9964 27.7761 27.8034 27.4371C27.7202 27.412 27.6508 27.3869 27.5676 27.3618C27.5399 27.4371 27.526 27.4999 27.4983 27.5752C27.4012 27.8765 27.2902 28.1653 27.1792 28.454C27.1376 28.5419 27.1099 28.6172 27.0821 28.7051C26.7908 29.3956 26.4718 30.0736 26.1111 30.739C26.0695 30.8018 26.0418 30.8771 26.0001 30.9399C25.8059 31.2914 25.5979 31.6304 25.3898 31.9694C25.3482 32.0321 25.3066 32.1075 25.265 32.1702C25.3204 32.2205 25.3898 32.2707 25.4592 32.3209C26.4024 33.0742 27.4289 33.7396 28.5386 34.292C28.608 34.3297 28.6773 34.3673 28.7467 34.3924C29.8564 34.9323 31.0494 35.3466 32.2839 35.6479C31.632 36.6649 30.9106 37.6567 30.12 38.6108C28.8854 38.2342 27.7063 37.7697 26.5827 37.1922C26.5134 37.1545 26.4302 37.1168 26.3608 37.0792C25.2788 36.5142 24.2523 35.8613 23.2952 35.1206C23.2397 35.0704 23.1704 35.0202 23.101 34.97C22.7403 34.6938 22.3936 34.3924 22.0606 34.0911C21.5058 33.5889 20.9787 33.0491 20.4932 32.4967C21.2561 31.6053 21.9358 30.6511 22.5184 29.6467C22.56 29.584 22.5878 29.5212 22.6294 29.4459C22.6432 29.4584 22.671 29.4584 22.6849 29.471C22.671 29.4584 22.6571 29.4333 22.6432 29.4207C22.6849 29.3454 22.7265 29.2701 22.7681 29.1822C23.2397 28.3159 23.6281 27.412 23.9472 26.4829C23.9749 26.4076 23.9888 26.3448 24.0165 26.282C24.0304 26.2318 24.0581 26.1816 24.0581 26.1314C24.072 26.1188 24.0998 26.1063 24.1136 26.0937C24.0998 26.0937 24.0859 26.0812 24.072 26.0812C24.2107 25.6292 24.3356 25.1647 24.4465 24.7001C24.4882 24.5495 24.5159 24.3863 24.5436 24.2356C24.6546 23.6958 24.7378 23.1559 24.7795 22.5909C25.5563 22.9801 26.3608 23.3191 27.1792 23.633C27.2624 23.6707 27.3457 23.6958 27.4289 23.7209C27.7341 23.8339 28.0531 23.9343 28.3583 24.0347C28.4415 24.0598 28.5248 24.085 28.5941 24.1101C29.7732 24.4742 30.9939 24.7629 32.2423 24.9638C32.3255 24.9763 32.4088 24.9889 32.492 25.0015C32.5059 24.9261 32.5197 24.8508 32.5336 24.7755C32.7139 23.6581 32.8249 22.5282 32.8388 21.3731C32.8388 21.2978 32.8388 21.2225 32.8388 21.1471C32.8388 21.0718 32.8388 20.9965 32.8388 20.9086C32.8388 19.8038 32.7556 18.699 32.6168 17.6318C32.6168 17.5941 32.6168 17.569 32.603 17.5314C32.6307 17.4937 32.6585 17.456 32.6723 17.4184C32.6446 17.4184 32.603 17.4058 32.5752 17.3933C32.5614 17.3179 32.5614 17.2426 32.5475 17.1798C32.3533 15.9369 32.062 14.7316 31.6736 13.564C31.6458 13.4636 31.6042 13.3757 31.5765 13.2753C31.4239 12.8233 31.2574 12.3839 31.0771 11.9445C31.0355 11.844 30.9939 11.731 30.9384 11.6306C30.8274 11.3795 30.7303 11.1284 30.6055 10.8773C30.5777 10.802 30.5361 10.7392 30.5084 10.6639C30.439 10.7016 30.3697 10.7267 30.3003 10.7643C29.7454 11.0405 29.2183 11.3544 28.7328 11.7059C28.6635 11.7562 28.5941 11.8064 28.5248 11.8566C28.067 12.1956 27.6231 12.5597 27.2208 12.9489C27.1653 13.0116 27.096 13.0619 27.0266 13.1246C26.6382 13.5138 26.2914 13.9156 25.9724 14.3424C25.8476 14.242 25.7088 14.1416 25.584 14.0411C25.5285 13.9909 25.4592 13.9407 25.3898 13.8905C25.2233 13.7524 25.0569 13.6017 24.8904 13.4636C24.3356 12.9614 23.8084 12.4216 23.3507 11.8566C23.8084 11.3167 24.3078 10.802 24.8349 10.3124C25.0014 10.1617 25.1679 10.0236 25.3343 9.87294C25.3898 9.82272 25.4592 9.7725 25.5285 9.72228C25.6811 9.59673 25.8337 9.48374 25.9863 9.37075C26.0556 9.32053 26.1111 9.27031 26.1805 9.22009C26.7353 8.80578 27.3318 8.42914 27.9422 8.09016C28.0393 8.03994 28.1364 7.97717 28.2473 7.92695C28.3583 7.86417 28.4831 7.8014 28.608 7.75118C28.6773 7.71352 28.7467 7.67585 28.8161 7.65074C29.9258 7.11089 31.1187 6.68402 32.3533 6.39526V6.40782C32.4226 6.52081 32.492 6.62125 32.5475 6.73424C33.1023 7.63819 33.6017 8.56724 34.0456 9.52141C34.0872 9.59673 34.115 9.65951 34.1427 9.73484C34.4756 10.463 34.7669 11.2163 35.0305 11.9696C35.0721 12.0826 35.1137 12.2081 35.1553 12.3211C35.3634 12.9489 35.5576 13.5766 35.7102 14.2169C35.7379 14.2922 35.7518 14.3676 35.7657 14.4429C36.0431 15.5603 36.2512 16.7027 36.376 17.8578C36.3899 17.9331 36.3899 18.0084 36.4038 18.0838C36.5702 18.9877 36.6118 19.9419 36.6118 20.896Z" fill="#39BEE7"/>
<path d="M27.1376 41.6993C27.1098 41.7244 27.096 41.737 27.0682 41.7621C26.1111 42.6284 25.1123 43.4319 24.072 44.1726C24.0026 44.2228 23.9333 44.2731 23.85 44.3233C22.7126 45.1142 21.5335 45.8298 20.3128 46.4701C19.0921 45.8298 17.913 45.1142 16.7756 44.3233C16.7062 44.2731 16.6369 44.2228 16.5536 44.1726C15.5133 43.4319 14.5007 42.6284 13.5574 41.7621C13.5297 41.737 13.5158 41.7244 13.488 41.6993C14.7226 41.2473 15.9017 40.6949 17.0253 40.0672C17.9824 40.8833 19.0228 41.624 20.0909 42.3145C20.1602 42.3647 20.2296 42.4024 20.3128 42.4526C20.3822 42.4024 20.4515 42.3647 20.5348 42.3145C21.6167 41.624 22.6432 40.8833 23.6004 40.0672C24.7239 40.6949 25.903 41.2473 27.1376 41.6993Z" fill="#39BEE7"/>
<path d="M22.0605 11.8943C21.5611 12.6978 21.0063 13.4762 20.3682 14.2044C19.7162 13.4385 19.1336 12.6476 18.6204 11.8064C19.1197 11.0029 19.6746 10.2245 20.3127 9.49634C20.9646 10.2496 21.5472 11.0531 22.0605 11.8943Z" fill="#39BEE7"/>
<path d="M20.9647 15.2212C20.7011 15.7987 20.4931 16.3888 20.3127 17.004C20.1463 16.4265 19.9382 15.8489 19.7024 15.2965C19.9382 15.058 20.1602 14.8195 20.3821 14.5684C20.5624 14.7943 20.7566 15.0078 20.9647 15.2212Z" fill="#39BEE7"/>
<path d="M20.6179 20.896C20.6179 21.8878 20.5069 22.842 20.3127 23.7836C20.1047 22.842 20.0076 21.8878 20.0076 20.896C20.0076 20.6072 20.0214 20.3185 20.0353 20.0423C20.0353 19.9293 20.0492 19.8288 20.0631 19.7158C20.1047 19.6907 20.1463 19.6531 20.1879 19.6154C20.1463 19.5903 20.1185 19.5652 20.0769 19.5275C20.0908 19.4271 20.0908 19.3392 20.1047 19.2388C20.1463 18.8119 20.2156 18.3976 20.3127 17.9833C20.4098 18.4227 20.4792 18.8621 20.5347 19.3141C20.5486 19.402 20.5624 19.5024 20.5624 19.5903C20.5763 19.6907 20.5763 19.8037 20.5902 19.9042C20.604 20.2682 20.6179 20.5821 20.6179 20.896Z" fill="#39BEE7"/>
<path d="M21.5474 27.7258C21.159 27.9518 20.7706 28.1652 20.3822 28.3661C19.9522 28.1526 19.5361 27.9141 19.1338 27.6756C19.6332 26.7591 20.0354 25.8049 20.3267 24.788C20.6042 25.8175 21.0203 26.7967 21.5474 27.7258Z" fill="#39BEE7"/>
<path d="M20.1603 32.4841C19.6748 33.0365 19.1477 33.5764 18.5789 34.0786C18.246 34.3799 17.8992 34.6812 17.5386 34.9574C17.4831 35.0076 17.4137 35.0578 17.3444 35.108C16.3872 35.8488 15.3607 36.5016 14.2788 37.0666C14.2094 37.1043 14.1401 37.1419 14.0568 37.1796C12.9332 37.7571 11.7542 38.2216 10.5196 38.5983C9.72892 37.6441 9.00761 36.6648 8.35565 35.6353C8.31403 35.5726 8.25855 35.4972 8.2308 35.4345C7.62046 34.4678 7.07947 33.4634 6.59397 32.4464C6.56622 32.3962 6.55235 32.3585 6.52461 32.3083C6.62171 32.2832 6.73268 32.2707 6.82978 32.2456C6.92688 32.2204 7.02398 32.1953 7.12108 32.1702H7.13496H7.14883H7.1627C7.17657 32.1702 7.19044 32.1702 7.21818 32.1702C7.20431 32.1702 7.19044 32.1702 7.1627 32.1702C7.17657 32.1702 7.19044 32.1577 7.21818 32.1577C7.24593 32.1577 7.2598 32.1451 7.28754 32.1451C7.32916 32.1326 7.3569 32.1326 7.39851 32.12C7.44013 32.1075 7.49561 32.0949 7.53723 32.0823C7.6482 32.0572 7.75917 32.0196 7.85627 31.9945C7.87014 31.9945 7.88402 31.9819 7.91176 31.9819C7.91176 31.9819 7.91176 31.9819 7.92563 31.9819C8.05047 31.9442 8.17532 31.9066 8.28629 31.8689C8.43888 31.8187 8.59146 31.7685 8.74405 31.7183C8.88276 31.668 9.00761 31.6178 9.14632 31.5676C9.18794 31.555 9.21568 31.5425 9.25729 31.5299C9.27116 31.5299 9.27116 31.5299 9.28504 31.5174C9.39601 31.4797 9.49311 31.4295 9.59021 31.3918C9.61795 31.3793 9.63182 31.3793 9.65957 31.3667C9.79828 31.3039 9.937 31.2412 10.0618 31.1784C10.1589 31.3793 10.256 31.5802 10.3531 31.781C10.3809 31.8564 10.4225 31.9191 10.4641 31.9819C10.8525 32.7477 11.2825 33.4885 11.7542 34.2041C11.7958 34.2669 11.8374 34.3296 11.879 34.3924C11.9484 34.3548 12.0177 34.3297 12.1009 34.292C13.2107 33.7396 14.2372 33.0867 15.1804 32.3209C15.2359 32.2707 15.3053 32.2204 15.3746 32.1702C15.333 32.1075 15.2914 32.0321 15.2498 31.9694C15.0417 31.6429 14.8336 31.3039 14.6533 30.965C14.6117 30.9022 14.5839 30.8394 14.5423 30.7641C14.1678 30.0861 13.8349 29.4082 13.5575 28.7051C13.5158 28.6298 13.4881 28.5419 13.4604 28.454C13.3494 28.1652 13.2384 27.889 13.1413 27.6003C13.1136 27.5375 13.0858 27.4622 13.0719 27.3869C12.7113 26.3071 12.4339 25.1898 12.2535 24.0473C12.2397 23.9719 12.2258 23.8966 12.2119 23.8213C12.1287 23.8464 12.0455 23.8715 11.9761 23.8966C10.7832 24.2607 9.56247 24.5495 8.31403 24.7378C8.2308 24.7503 8.14757 24.7629 8.06435 24.7755C6.84365 24.9638 5.59522 25.0642 4.31904 25.0642C4.13871 23.9468 4.04161 22.8169 4 21.6744H4.04161C5.30392 21.6744 6.53848 21.574 7.7453 21.3731C7.82853 21.3606 7.91176 21.348 7.99499 21.3354C8.84115 21.1973 9.65957 20.9965 10.4641 20.7579C10.5473 20.7328 10.6306 20.7077 10.7138 20.6826C11.0606 20.5822 11.4074 20.4566 11.7403 20.3436C11.8235 20.3185 11.9067 20.2808 11.99 20.2557C11.99 20.1804 11.99 20.0925 12.0038 20.0172C12.0455 18.9751 12.1703 17.9457 12.3784 16.9287C12.3922 16.8283 12.42 16.7153 12.4477 16.6148C12.4893 16.4014 12.5448 16.1754 12.6003 15.962C12.6281 15.8616 12.6558 15.7611 12.6835 15.6481C12.8916 14.8697 13.1413 14.1039 13.4465 13.3506C13.4881 13.2627 13.5158 13.1874 13.5436 13.1121C13.4881 13.0493 13.4187 12.9865 13.3494 12.9363C12.961 12.5596 12.5448 12.2081 12.1009 11.8942C12.0316 11.844 11.9622 11.7938 11.8929 11.7436C11.3796 11.3795 10.8386 11.0531 10.256 10.7643C10.1867 10.7266 10.1173 10.689 10.048 10.6639C10.0064 10.7266 9.97861 10.802 9.95087 10.8773C9.85377 11.0782 9.75667 11.2916 9.67344 11.4925C9.63182 11.5929 9.57634 11.7059 9.54859 11.8064C9.34052 12.3086 9.14632 12.8107 8.97986 13.3255C8.17532 13.6394 7.34303 13.8653 6.45525 14.0286C6.37202 14.0411 6.28879 14.0537 6.21944 14.0662C5.76168 14.1416 5.30392 14.1918 4.83229 14.2169C5.01262 13.5264 5.22069 12.8359 5.44263 12.1579C5.48425 12.0323 5.52586 11.9194 5.56748 11.7938C5.81716 11.0907 6.09459 10.4002 6.39977 9.72226C6.42751 9.64694 6.46912 9.57161 6.49687 9.50883C6.95463 8.50445 7.49561 7.52518 8.07822 6.57101C8.11983 6.50824 8.16145 6.44546 8.18919 6.38269C8.2308 6.39525 8.25855 6.39525 8.30016 6.4078C9.50698 6.69656 10.6583 7.11087 11.7403 7.63817C11.8096 7.67583 11.879 7.70094 11.9484 7.73861C12.1148 7.81394 12.2813 7.90182 12.4339 7.9897C12.531 8.03992 12.6281 8.1027 12.739 8.15292C13.3355 8.49189 13.9042 8.85598 14.4452 9.25774C14.5146 9.30796 14.5701 9.34562 14.6394 9.40839C14.7643 9.50883 14.903 9.60927 15.0278 9.70971C15.0833 9.75993 15.1527 9.81015 15.222 9.86037C15.3885 9.99847 15.5549 10.1491 15.7214 10.2998C16.2763 10.802 16.7895 11.3418 17.2611 11.9068C17.3166 11.9696 17.3721 12.0323 17.4137 12.0951C17.5663 12.2709 17.705 12.4592 17.8299 12.635C17.3028 13.6017 16.8727 14.6186 16.5398 15.6732C16.5121 15.7611 16.4843 15.8616 16.4566 15.9494C16.3317 16.3386 16.2346 16.7404 16.1375 17.1421C16.1237 17.1673 16.1237 17.2049 16.1237 17.23C16.0959 17.3305 16.0821 17.4435 16.0543 17.5565C16.0543 17.5816 16.0404 17.5941 16.0404 17.6192C16.0127 17.7573 15.985 17.8954 15.9572 18.0335C15.9433 18.134 15.9295 18.2344 15.9156 18.3348C15.8046 19.0379 15.7491 19.7661 15.7214 20.4943C15.7214 20.6073 15.7075 20.7077 15.7214 20.8207C15.7214 20.8584 15.7214 20.896 15.7214 20.9211C15.7214 21.4108 15.7353 21.913 15.7769 22.4026C15.7908 22.4779 15.7908 22.5658 15.8046 22.6411C15.8601 23.181 15.9295 23.7083 16.0404 24.223C16.0682 24.3863 16.0959 24.5369 16.1375 24.6876C16.2346 25.1395 16.3595 25.579 16.4982 26.0309C16.5121 26.056 16.5121 26.0812 16.526 26.1188C16.5537 26.1941 16.5676 26.2569 16.5953 26.3323C16.5814 26.3448 16.5676 26.3448 16.5537 26.3448C16.5676 26.3574 16.5953 26.3825 16.6092 26.3825C16.9282 27.3492 17.3444 28.2908 17.8299 29.1822C17.8437 29.2199 17.8715 29.2575 17.8854 29.2952C17.8854 29.3077 17.8992 29.3203 17.8992 29.3203C17.8992 29.3328 17.9131 29.3454 17.9131 29.3454C17.927 29.3705 17.927 29.3831 17.9408 29.4082C17.9547 29.4333 17.9686 29.4458 17.9825 29.4709C18.0241 29.5337 18.0518 29.5965 18.0934 29.6593C18.7315 30.6637 19.3973 31.6053 20.1603 32.4841Z" fill="#39BEE7"/>
</g>
<defs>
<filter id="filter0_d_6_661" x="0" y="0.243408" width="40.6118" height="54.2267" filterUnits="userSpaceOnUse" color-interpolation-filters="sRGB">
<feFlood flood-opacity="0" result="BackgroundImageFix"/>
<feColorMatrix in="SourceAlpha" type="matrix" values="0 0 0 0 0 0 0 0 0 0 0 0 0 0 0 0 0 0 127 0" result="hardAlpha"/>
<feOffset dy="4"/>
<feGaussianBlur stdDeviation="2"/>
<feComposite in2="hardAlpha" operator="out"/>
<feColorMatrix type="matrix" values="0 0 0 0 0 0 0 0 0 0 0 0 0 0 0 0 0 0 0.6 0"/>
<feBlend mode="normal" in2="BackgroundImageFix" result="effect1_dropShadow_6_661"/>
<feBlend mode="normal" in="SourceGraphic" in2="effect1_dropShadow_6_661" result="shape"/>
</filter>
</defs>
</svg>
