<svg width="251" height="150" viewBox="0 0 251 150" fill="none" xmlns="http://www.w3.org/2000/svg">
<g clip-path="url(#clip0_6_452)">
<path d="M121.1 26.7C120.5 27.1 119.3 28.6 117.6 31.2C115.3 32 110.4 35 102.7 40.5V44L103.7 46L106.5 47.8L105.5 51.3L106.5 54.1C109.1 55.3 112.8 57.4 117.7 60.6L120.2 67V69L118.4 73.5V76.3L116.9 78.6C115.4 79.7 112.8 81 109.3 82.6L104.8 86.4C104 88.6 103.7 89.7 103.8 89.9L102 90.9L101 93.7C98.9 95.5 92.2 96.5 80.9 96.5C80.2 96.5 79.2 96.7 77.8 97.1C76.4 97.5 75.3 97.6 74.4 97.5C73.3 98.6 71.4 99.5 68.8 100.3C66.7 100.9 64.6 101.5 62.5 102.1C60.5 103 58.5 103.9 56.6 104.8C54.7 105.7 52.4 106 49.7 105.6L45.9 108.4C44.3 108.6 41.2 109.8 36.6 112C31.5 114.5 27.9 116.1 25.8 116.6L21.3 120.5V121.3C20.8 121.6 20.2 122.3 19.5 123.3C17.7 124.2 16.4 125.1 15.7 126.1H14.7L13.9 127.9V130.7L15.7 133.5V135.3L11.1 138.1L3.8 136.3L0 133.1V128.6H1V127.6L5.5 125.8C5.8 125.2 6.2 124.4 6.9 123.4C7.6 122.4 8 121.6 8.3 121H9C12.9 116.9 17.2 113.8 21.9 111.8V110C24.2 108.7 27.6 106.8 32.2 104.5C34.2 104.1 37.2 102.8 41.2 100.7H44C44.8 100.1 45.8 99.5 46.8 98.9L59.6 95.1C60.3 94.6 61.2 94 62.4 93.3C69.9 90.3 74.2 88.8 75.3 88.8L76.3 87.8L86.3 85V84.2H90.8C91.4 83.4 92.3 82.5 93.6 81.4C94.5 78.6 94.6 76 93.9 73.6L94.9 69.6L94.4 65.8C91.8 64.5 87.9 62.9 82.6 60.9L80.8 62.9C78.5 63.7 75.4 64 71.5 63.7C70.2 62.7 69.3 61.5 68.7 60.2L63.1 58.4V51.9L66 49.1L73.5 46.3V45.5C75.3 43.8 78.7 42 83.5 40V39H90.8L94.3 37.2L95.3 35.2V35H96.3L98.1 30.5C96.1 29.2 92.4 28.9 87.1 29.5C86.4 28.8 85.5 27.3 84.3 25L82.5 24H77C75.4 24.4 74.5 24.8 74.2 25C72.7 24.6 70.8 23 68.7 20.2C68.5 20.2 68.2 20.2 67.8 20.3C67.4 20.4 67.1 20.4 66.9 20.4C66.6 20.4 66.1 20.4 65.5 20.3C64.9 20.2 64.5 20.2 64.1 20.2L60.6 23C59.3 25.3 58.3 27.2 57.8 28.5L55 30.5V32.3H54L52.3 35H51.3V37.8L48.5 39.6H45C43.4 38.9 42.1 38 41.2 36.8L42.2 33L44 31.2V30.4C44.9 29.7 45.8 28.5 46.8 26.6L53.1 24.8C55.1 22.8 56.7 21.5 57.9 21V17.5L63.2 11.8L64.3 7L66 6.5C67.8 4.4 69.6 2.9 71.5 2L75.8 1.5L76.3 0H78.1C79.1 0 80.6 0.3 82.6 1L84.4 2.8L86.4 7.3C88.6 9.1 91.9 10.3 96.4 11.1L97.2 13L100 15L102.8 19.5V20.3C105.9 21.2 108.7 21.6 111.1 21.3L112.9 20.3L116.7 22.3L120.3 26.8L121.1 26.7Z" fill="black"/>
<path d="M203 90.5999L202 92.5999L196.7 94.3999L191.4 93.3999C185.8 88.7999 179.6 86.9999 172.8 87.8999L171 86.0999L165.5 84.2999L162.7 81.4999C160.8 80.4999 158.9 80.1999 157.2 80.4999C153.3 82.8999 150.9 84.7999 149.8 85.9999C148 86.2999 146.2 86.4999 144.3 86.4999C142.4 86.4999 140.5 86.2999 138.8 85.9999L135 86.9999L132.2 91.4999L128.7 93.2999L123.2 89.7999V85.2999L125.5 81.7999L128.5 80.2999L129.8 80.5999L131.3 77.7999L135.6 74.9999L140.6 74.1999L141.6 73.1999C143.9 73.6999 147 73.0999 150.6 71.3999L151.6 69.3999C153.2 69.0999 154.5 68.1999 155.5 66.8999H157.3C160.1 65.0999 161.6 61.9999 161.6 57.4999L163.6 56.4999C164.4 55.7999 165.8 53.8999 167.6 50.5999C169 47.9999 170.7 46.3999 172.6 45.6999C176.9 39.5999 179 33.9999 179 28.9999V18.6999L177.5 14.6999H176.5C175.8 14.6999 171.3 16.7999 163 20.9999L159.2 25.7999C157.5 26.4999 156.3 27.0999 155.7 27.5999V29.3999H153.6L150.8 33.1999L149 33.9999V34.9999L145.2 35.9999L139.9 34.9999L138.9 31.4999C141.6 29.6999 145 27.1999 149.2 23.9999C153.9 23.0999 156.9 21.8999 158.4 20.4999L160.2 17.6999V15.8999L165.7 13.0999L166.5 11.9999C169.6 11.6999 172.9 10.4999 176.5 8.1999L180.3 9.1999C182.3 8.5999 184.7 7.9999 187.6 7.3999L191.4 9.1999L194.9 13.0999C195.6 14.8999 196.5 17.4999 197.7 21.0999L196.9 22.0999C197.2 23.3999 197 25.1999 196.4 27.4999C195.7 30.1999 195.4 32.2999 195.4 33.7999C195.4 34.7999 195.5 35.7999 195.7 36.8999C195.4 37.4999 194.1 39.5999 191.9 43.0999C189.7 46.6999 188.6 48.4999 188.6 48.6999C186.3 50.9999 182.9 52.8999 178.6 54.1999L177.6 56.9999L174.8 59.4999V62.2999H173.8L170.3 66.1999L171.3 67.1999C177.7 68.9999 182.3 71.5999 185.1 74.9999L191.4 77.2999V79.0999L193.2 80.0999L195 80.3999C196.5 82.7999 198.4 84.5999 200.5 85.6999H201.5L203 90.5999Z" fill="black"/>
<path d="M99.7 120.6L99.3 121.5C99.2 121.8 98.9 122.1 98.7 122.4L97.6 123.5V124C97.1 124.1 96.6 124.4 96.4 124.8C96.1 125.2 95.8 125.4 95.6 125.4C95.2 126.2 94.1 126.7 92.5 127.1C91.9 127.9 91.1 128.3 89.9 128.3H89.5V128.7H88L87.2 129.4L86.4 129.5C86.4 129.9 86.2 130.1 85.9 130.1L85.2 130.6H83.5L82.5 131.5L79.5 132.1L79.1 132.4L77.4 132.3C77.4 132.5 77.1 132.9 76.8 133.5C76.6 133.3 75.9 133.2 74.7 133.1L74 133.5L73 133.9C72.5 134.2 72 134.5 71.4 134.6L71 136L71.7 137.4L71.3 139.1L71.8 141.1L71.3 141.4L71.9 142.2V143.6L72.2 144.3V145.6L73.9 145.5C74.1 145.7 74.3 146 74.3 146.3C74.3 147 73.8 147.4 72.8 147.4H72.4L71.2 147.8L70.2 146L68.9 143.2V140.2L68.2 138.8L68.7 138.2L68.4 136.8L68.5 135.8L68 135.2L65 134.7L64.2 133.6L67.8 133.3L67.4 133.1C67.5 133 67.6 133 67.8 133C68.1 133 68.2 133 68.3 133.1V131.4L68.8 130.6L69 126.3L69.4 125.8L69.3 122.5L69.6 120.7L69.7 116.7L70.2 115.6L70.8 115.2L70.7 114.1C70.7 113.6 71 113.4 71.5 113.4C73.1 113.4 74 114 74 115.1C74 115.4 73.8 115.9 73.4 116.7C73 117.5 72.8 118 72.8 118.4C72.8 118.8 73.1 119.5 73.6 120.4L72.9 121L72.8 122.9L71.9 123.8L72.2 125.3L71.6 127L71.9 128.6L71.6 129.8L71.7 130.7L71.2 131.5C71.3 132.3 71.6 132.8 72.2 132.9L74 131.8H75.5C76.2 131.1 77 130.8 78 130.8L78.5 130.3C78.7 130.4 79.1 130.4 79.5 130.4C80.5 130.4 81.4 130 82.4 129.2L83.6 129.1L84.5 128.3H85.4L85.6 127.9L89.4 126.8C90.1 126.7 90.4 126.6 90.4 126.3C90.6 126.1 90.7 125.9 90.8 125.6C91 125.6 91.3 125.7 91.6 125.7C92.3 125.7 92.7 125.3 92.8 124.4C93.6 124.3 94 124.2 94 123.9C94 123.6 94.3 123.5 94.6 123.4L95 123.8L95.4 122.7L95.9 122.3L96.2 120.7C95.8 119.6 95.3 118.7 94.6 117.8L93.9 117.7L92.6 116.5L89.9 115.4C88.2 114.1 86.4 113.4 84.4 113.2V113.7L83.2 112.9L81.5 113L80.5 112.3H79.3L78.3 111.7H77.3C76.8 111.7 76.4 111.5 76.1 111.1L73.3 110.7C72.8 110.9 72.1 111.1 71.1 111.5L69.4 110.5L68.4 111.1L67.6 110.6L66.1 111.1V111.3H66L64.6 112.1L63.6 112.2C63.3 112.2 62.8 112.5 62.2 112.9C61.6 112.1 61.2 111.2 61 110.3L61.7 109.3V108.8C61.8 108.6 62.2 108.5 63 108.4C63.8 108.3 64.4 108.2 65 107.9C65.5 108 65.9 108.1 66 108.1C66.2 108.1 66.4 108 66.6 107.8L67.2 108.1C67.6 108 67.8 107.9 67.9 107.9C68.2 107.9 68.4 108.1 68.5 108.4H72L74.1 108.5L76.5 108.9C76.6 109.1 76.8 109.2 77.1 109.3C77.4 109.4 77.5 109.5 77.5 109.6L78 109.1H78.3C78.8 109.1 79.1 109.2 79.1 109.4C79.1 109.5 79.1 109.6 79 109.6H80C81.3 110 82.4 110.2 83.2 110.2L83.4 110.6H85.4L86.7 111.5C86.8 111.6 87.3 111.7 88.2 111.8L88.6 112.4H89C90.2 112.4 91.1 112.9 91.6 113.8L92.5 113.3V114.2C92.9 114.3 93.6 114.7 94.3 115.3H95.1L95.8 116.3L98.1 117.8V118.6L99.7 120.6Z" fill="black"/>
<path d="M148.5 128.2C148.5 128.6 148.3 128.8 148 128.9L146.8 128.5L145.5 129.5L144 129.3C143.4 129.7 142.7 129.9 142 129.9C141.4 129.9 141.1 130 140.9 130.3C140.3 130 139.8 129.9 139.2 129.9C138.7 129.9 138.4 130.1 138.3 130.4C138.4 130.6 138.6 130.8 138.8 131L138.6 131.7L138.8 134.1L139.7 135.5L139.9 136.8L141.5 139.1L141.3 140.2L142.4 141.2L144.1 144C145 145 145.5 145.7 145.6 146.1L146.9 146.8L147.4 147.9L147.9 148.3L147 149L145.8 148.1H145.1L144.2 147.4H143.5L142.8 146.2L142 146C141.4 144.9 140.8 144 140.1 143.3V142.6L139.4 142L139.3 140.9L138.2 139.7L136.7 136.1L136.2 135.5L136 133.7C136 133.5 135.7 133 135.1 132V130.5H134.3L133.4 131.1L132 130.8L131 131.4L130.6 131L129.8 131.5L129.6 131C129.5 131 129.2 131.1 128.9 131.2C128.5 131.3 128.1 131.4 127.7 131.4L126.8 131.3H125.6L124.4 132.1L123.1 131.8L121.3 131.9V132.3L120.7 131.9L119.8 132.4L119.2 131.9H118L116.8 132.4L115.9 131.4L115.4 131.8L114.4 131.4C113.6 131.8 112.5 133 111.1 135.1L109.9 135.4C108 138.4 106.9 139.8 106.8 139.9L106.2 140.3L104.2 142.9H103.8L102.1 145.7L100.2 146.9L98.8 146.5L99 146V145L99.5 144.4L99.3 143.9L100.6 143.7L101.5 143.2C102.3 142.9 102.8 142.3 102.9 141.4C103.9 141.1 104.5 140.6 104.6 139.7C105.7 139 106.5 138 106.9 136.5L107.9 136.1L110.2 132.5V131.5C109.9 131.2 109.6 130.9 109.5 130.4L110.9 129.2V128.7L112.6 128.9L113.5 128.3L113.7 128.6L114.6 127.3C114.4 127.3 114.3 127.1 114.3 127C114.3 126.9 114.6 126.6 115.3 126.2L115.6 126.6C115.6 126 115.9 125.3 116.3 124.5L116.1 124.4L116.9 124.3L117.2 123.4C117.8 123.3 118.1 123.1 118.1 122.7V121.9C119.2 120.9 119.8 120 119.8 119.2V119.1L120.7 119L120.9 118L121.4 117.9L122.1 116.4L122.6 116.8L122.2 116C122.9 115.9 123.3 115.5 123.4 114.6L123.9 114.9V113.5H124.4V112.5C124.5 112.4 124.8 112.2 125.2 111.8C125.6 111.4 125.9 110.9 126 110.2L126.8 109.4L126.3 108.3C127 107.4 127.6 107 128.2 107H128.3L128.7 106.3L129.2 107C129.3 107.1 129.5 107.3 129.8 107.5L131 108.1L131.1 109.9C131.4 110.2 131.7 110.7 132 111.3L132.6 111.5L132.7 113.1L133.3 115.2L134.2 116.9L134.8 119.2L134.9 120.7L135.9 122.1L135.6 122.7L136.4 123.6V124.7L136.6 125.7C136.6 125.9 136.5 126.1 136.3 126.4C137 128.1 137.9 129 138.8 129L140.2 128.7H141.9C142.4 128.8 142.8 128.9 143.2 128.9C143.8 128.9 144.3 128.8 144.6 128.5C144.9 128.2 145.2 128.1 145.3 128.1C145.4 128.1 145.9 128.3 146.6 128.7L148.5 128.2ZM134.8 126.5C134.5 125.7 134.1 125.2 133.6 124.9L134 123.9L133.1 123.4L132.8 120.7L131.9 119.3L131.8 118.1L131.3 117.1V116.7H131.1L131 115.2C131 115 130.9 114.8 130.6 114.4L130.1 113.6C130 113.5 129.8 113.3 129.5 113.1C129.2 112.9 128.8 112.6 128.1 112.4L127.3 112.8L126.8 113.6L125.1 116.1L124.7 116.9C124.6 117.1 124 117.8 123 118.8L122.7 120L121.2 120.8C120.8 122.6 120.1 123.7 119.1 124L118.4 126.2L117 126.8V127.5L116.8 128.4C117.6 128.7 118.2 128.9 118.6 129.1L119.5 129L120.9 129.4C121.2 129.5 121.4 129.5 121.5 129.5C121.7 129.5 122.1 129.5 122.5 129.4C122.5 129.4 122.6 129.3 122.8 129.3C122.9 129.3 123.1 129.3 123.3 129.4C123.6 129.5 123.9 129.5 124.1 129.5L125 129.3L127.8 129.1L130.1 128.8C131.6 129 132.5 129.1 132.9 129.1C134 129.1 134.6 128.9 134.6 128.4C134.6 128.1 134.4 127.7 134 127.2L134.8 126.5Z" fill="black"/>
<path d="M194.4 131.2L195 132.1L197.5 134C198.2 134.6 198.6 135.7 198.6 137.3L198.7 138.4C198.7 138.8 198.4 139.4 197.8 140.2C197.2 141 196.5 141.6 195.7 141.9C195.6 142.2 195.3 142.4 194.8 142.4H194.6C193.9 143.1 193.1 143.4 192.1 143.4C191.8 143.8 191.4 144.1 190.8 144.4L189.3 144.3L188 145.5L187.4 145.1L186.5 145.4C185.5 145.4 184.9 145.5 184.8 145.7L182.5 145.5C181.5 145.9 180.8 146.1 180.4 146.1L178.4 146L177 146.6L176.2 146.5C176.1 146.4 175.9 146.3 175.8 146.3C175.6 146.3 175.4 146.4 175.2 146.7H172.9L172.2 146.3L171.7 146.7L168.3 146.6L166.6 146.3C166.1 146.5 165.7 146.7 165.4 146.7C164.9 146.7 164.2 146.4 163.4 145.8L162.2 146.3L161.8 145.9H161C160.1 145.9 159.3 145.8 158.5 145.5C157.7 145.2 157.2 145.1 157 145.1C156.9 145.1 156.8 145.1 156.6 145.2L154.1 143.4L152.5 143C151.4 141.6 150.8 140.5 150.8 139.7C150.8 139.4 151 138.7 151.3 137.7L151.8 137.8C152.2 137.8 152.5 137.5 152.6 137L153.7 136.9L153.2 136.7L154 136.6C154.4 136.1 154.7 135.9 154.9 135.9C155.4 135.9 155.7 136.3 155.7 137.2C155.1 137.3 154.5 137.7 154 138.2C154 138.4 153.8 138.6 153.4 138.8C153 139 152.8 139.2 152.6 139.3L152.8 139.7V140.9C153.6 141.3 154.3 142 155 142.8L155.9 142.9C156.2 142.9 156.7 143.2 157.3 143.6L158.6 143.5L158.5 143.1L160.4 143.2L160 143.5L161.6 143.8L161.8 144.2H165.1V144.4C165.4 144.1 165.7 144 166.1 144C166.3 144 166.5 144.1 166.8 144.2C167.1 144.3 167.6 144.4 168.4 144.4L168.5 144.8L169.5 144.9H170.6L171.3 145.2L171 144.9C171.7 144.6 172.2 144.5 172.6 144.5C172.8 144.5 173.1 144.6 173.3 144.9C173.7 144.6 174.2 144.5 174.8 144.5C175.3 144.5 175.9 144.6 176.5 144.8C176.8 144.6 177.1 144.4 177.5 144.4C177.9 144.4 178.2 144.5 178.6 144.8L181.2 144.1L181.7 143.4L183.9 143.7L185.7 143.3L185.4 143.2C185.5 143.1 186.3 143 187.9 143C188 142.8 188.2 142.8 188.3 142.8L188.8 142.9L190.6 142.1L191 142.2V141.8H192.2V141.7C192.2 141.3 192.6 141 193.3 141H193.8L194.1 140.7L193.9 140.4C194.3 140 194.6 139.8 194.7 139.8C195.2 139.8 195.5 139.6 195.5 139.2C196.1 138.3 196.4 137.7 196.4 137.3C196.4 136.2 194.6 134.9 190.9 133.3L187.7 132C186.9 132 185.7 131.7 184.2 131.2C183.5 130.7 182.7 130.4 181.8 130.4C181.2 130.4 180.7 130.4 180.4 130.5L180 129.9L179 130.3L178.2 129.4L177.1 129.7L175.1 128.7H173.8L173 128.1H171.8L171.3 127.4L171.2 127.8H170.4L169.4 126.6C167.1 126.6 165.6 126.2 164.9 125.4L164.1 125.6L163.6 124.4L162.4 123.2C161.8 121.7 161.3 120.7 161 120.3L161.3 118.2L162.5 116.7C162.9 116.5 163.3 116.1 163.5 115.4C164.2 114.9 164.8 114.7 165.2 114.6C165.3 114.8 165.5 114.9 165.6 114.9L166.3 113.9L166.6 114.4L166.7 113.9L169.3 113L168.5 112.8L169.2 112.9C170 112.9 170.5 112.6 170.7 112.1C171.8 112.1 173 111.9 174.4 111.6L174 111.3C174.1 111.2 174.3 111.2 174.6 111.2C175 111.2 175.2 111.2 175.3 111.3L175.1 111.1L175.7 111.2C176.2 111.2 176.5 111 176.6 110.6H177L177.8 110.5C177.9 110.5 178 110.5 178 110.6V110.9C178.3 110.7 178.6 110.5 178.9 110.5H179.3L183.6 110.1L183.8 110.5V110L184.7 109.4C184.9 109.9 185.4 110.1 186.1 110.1H186.5C187.6 110.1 188.4 110.2 188.8 110.5L188.3 110.6C189.2 110.6 190.5 110.9 192.2 111.4C193.9 112 194.8 112.8 194.8 114.1C194.8 115 194.2 115.6 193 115.8L192.7 115.2L190.3 114.4H189.3L188.5 113.4L187 113.6L186.5 113.1L185.9 113.9L184.9 113.1L182.7 113.4L180.3 112.7L179.6 113.1C178.1 113.2 177.2 113.3 176.9 113.5C176.8 113.5 176.6 113.4 176.4 113.4C176 113.4 175.7 113.6 175.4 114L173.7 114.1L169.2 115.8L168.1 115.5L166.4 116.8H165.5L164.8 117.8L163 119.1C162.8 119.2 162.7 119.3 162.7 119.4V119.5C162.9 120.3 163.1 120.9 163.1 121.4L163.8 121.8L164.2 122.5L165.3 122.8L166.1 123.4C166.3 123.6 167 123.9 168.1 124.3L168.2 124.7H169.9L172 126.1L172.9 125.8C173.4 126 174 126.2 174.6 126.6C175.2 127 175.6 127.2 175.8 127.2C176 127.2 176.3 127.1 176.6 126.9V127.4L179.1 127.6L179.8 128.1V127.9H180.3L181.4 128.6C182.7 128.6 183.6 128.7 184 129C184.3 129 184.6 128.9 185.1 128.9C185.7 128.9 186.2 129.1 186.7 129.6C187.2 130.1 187.5 130.3 187.7 130.3H187.8L188.6 130.1L189.1 130.3H190.1L192.1 131.7L194.4 131.2Z" fill="black"/>
<path d="M246.2 131.2L246.8 132.1L249.3 134C250 134.6 250.4 135.7 250.4 137.3L250.5 138.4C250.5 138.8 250.2 139.4 249.6 140.2C249 141 248.3 141.6 247.5 141.9C247.4 142.2 247.1 142.4 246.6 142.4H246.4C245.7 143.1 244.9 143.4 243.9 143.4C243.6 143.8 243.2 144.1 242.6 144.4L241.1 144.3L239.8 145.5L239.2 145.1L238.3 145.4C237.3 145.4 236.7 145.5 236.6 145.7L234.3 145.5C233.3 145.9 232.6 146.1 232.2 146.1L230.2 146L228.8 146.6L228 146.5C227.9 146.4 227.7 146.3 227.6 146.3C227.4 146.3 227.2 146.4 227 146.7H224.7L224 146.3L223.5 146.7L220.1 146.6L218.4 146.3C217.9 146.5 217.5 146.7 217.2 146.7C216.7 146.7 216 146.4 215.2 145.8L214 146.3L213.6 145.9H212.8C211.9 145.9 211.1 145.8 210.3 145.5C209.5 145.2 209 145.1 208.8 145.1C208.7 145.1 208.6 145.1 208.4 145.2L205.9 143.4L204.3 143C203.2 141.6 202.6 140.5 202.6 139.7C202.6 139.4 202.8 138.7 203.1 137.7L203.6 137.8C204 137.8 204.3 137.5 204.4 137L205.5 136.9L205 136.7L205.8 136.6C206.2 136.1 206.5 135.9 206.7 135.9C207.2 135.9 207.5 136.3 207.5 137.2C206.9 137.3 206.3 137.7 205.8 138.2C205.8 138.4 205.6 138.6 205.2 138.8C204.8 139 204.6 139.2 204.4 139.3L204.6 139.7V140.9C205.4 141.3 206.1 142 206.8 142.8L207.7 142.9C208 142.9 208.5 143.2 209.1 143.6L210.4 143.5L210.3 143.1L212.2 143.2L211.8 143.5L213.4 143.8L213.6 144.2H216.9V144.4C217.2 144.1 217.5 144 217.9 144C218.1 144 218.3 144.1 218.6 144.2C218.9 144.3 219.4 144.4 220.2 144.4L220.3 144.8L221.3 144.9H222.4L223.1 145.2L222.8 144.9C223.5 144.6 224 144.5 224.4 144.5C224.6 144.5 224.9 144.6 225.1 144.9C225.5 144.6 226 144.5 226.6 144.5C227.1 144.5 227.7 144.6 228.3 144.8C228.6 144.6 228.9 144.4 229.3 144.4C229.7 144.4 230 144.5 230.4 144.8L233 144.1L233.5 143.4L235.7 143.7L237.5 143.3L237.2 143.2C237.3 143.1 238.1 143 239.7 143C239.8 142.8 240 142.8 240.1 142.8L240.6 142.9L242.4 142.1L242.8 142.2V141.8H244V141.7C244 141.3 244.4 141 245.1 141H245.6L245.9 140.7L245.7 140.4C246.1 140 246.4 139.8 246.5 139.8C247 139.8 247.3 139.6 247.3 139.2C247.9 138.3 248.2 137.7 248.2 137.3C248.2 136.2 246.4 134.9 242.7 133.3L239.5 132C238.7 132 237.5 131.7 236 131.2C235.3 130.7 234.5 130.4 233.6 130.4C233 130.4 232.5 130.4 232.2 130.5L231.8 129.9L230.8 130.3L230 129.4L228.9 129.7L226.9 128.7H225.6L224.8 128.1H223.6L223.1 127.4L223 127.8H222.2L221.2 126.6C218.9 126.6 217.4 126.2 216.7 125.4L216 125L215.5 123.8L214.3 122.6C213.7 121.1 213.2 120.1 212.9 119.7L213.2 117.6L214.4 116.1C214.8 115.9 215.2 115.5 215.4 114.8C216.1 114.3 216.7 114.1 217.1 114C217.2 114.2 217.4 114.3 217.5 114.3L218.2 113.3L218.5 113.8L218.6 113.3L221.2 112.4L220.4 112.2L221.1 112.3C221.9 112.3 222.4 112 222.6 111.5C223.7 111.5 224.9 111.3 226.3 111L225.9 110.7C226 110.6 226.2 110.6 226.5 110.6C226.9 110.6 227.1 110.6 227.2 110.7L227 110.5L227.6 110.6C228.1 110.6 228.4 110.4 228.5 110H228.9L229.7 109.9C229.8 109.9 229.9 109.9 229.9 110V110.3C230.2 110.1 230.5 109.9 230.8 109.9H231.2L235.5 109.5L235.7 109.9V109.4L236.6 108.8C236.8 109.3 237.3 109.5 238 109.5H238.4C239.5 109.5 240.3 109.6 240.7 109.9L240.2 110C241.1 110 242.4 110.3 244.1 110.8C245.8 111.4 246.7 112.2 246.7 113.5C246.7 114.4 246.1 115 244.9 115.2L244.6 114.6L242.2 113.8H241.2L240.4 112.8L238.9 113L238.4 112.5L237.8 113.3L236.8 112.5L234.6 112.8L232.2 112.1L231.5 112.5C230 112.6 229.1 112.7 228.8 112.9C228.7 112.9 228.5 112.8 228.3 112.8C227.9 112.8 227.6 113 227.3 113.4L225.6 113.5L221.1 115.2L220 114.9L218.3 116.2H217.4L216.7 117.2L214.9 118.5C214.7 118.6 214.6 118.7 214.6 118.8V118.9C214.8 119.7 215 120.3 215 120.8L215.7 121.2L216.1 121.9L217.2 122.2L218 122.8C218.2 123 218.9 123.3 220 123.7L220.1 124.1H221.8L223.9 125.5L224.8 125.2C225.3 125.4 225.9 125.6 226.5 126C227.1 126.4 227.5 126.6 227.7 126.6C227.9 126.6 228.2 126.5 228.5 126.3V126.8L231 127L231.7 127.5V127.3H232.2L233.3 128C234.6 128 235.5 128.1 235.9 128.4C236.2 128.4 236.5 128.3 237 128.3C237.6 128.3 238.1 128.5 238.6 129C239.1 129.5 239.4 129.7 239.6 129.7H239.7L240.5 129.5L241 129.7H242L244 131.1L246.2 131.2Z" fill="black"/>
</g>
<defs>
<clipPath id="clip0_6_452">
<rect width="250.4" height="149.3" fill="white"/>
</clipPath>
</defs>
</svg>
